<?xml version="1.0" standalone="no"?>
<!DOCTYPE svg PUBLIC "-//W3C//DTD SVG 20010904//EN"
 "http://www.w3.org/TR/2001/REC-SVG-20010904/DTD/svg10.dtd">
<svg version="1.0" xmlns="http://www.w3.org/2000/svg"
 width="549.000000pt" height="549.000000pt" viewBox="0 0 549.000000 549.000000"
 preserveAspectRatio="xMidYMid meet">
<metadata>
Created by potrace 1.14, written by Peter Selinger 2001-2017
</metadata>
<g transform="translate(0.000000,549.000000) scale(0.100000,-0.100000)"
fill="#000000" stroke="none">
<path d="M5020 5177 c0 -4 -5 -5 -10 -2 -6 4 -17 1 -25 -5 -8 -7 -15 -9 -15
-6 0 4 -7 0 -16 -8 -8 -9 -20 -14 -25 -11 -5 4 -9 2 -9 -3 0 -5 -17 -14 -37
-20 -21 -7 -76 -32 -123 -57 -47 -24 -105 -54 -130 -66 -99 -47 -246 -123
-270 -139 -14 -10 -43 -23 -65 -30 -81 -25 -112 -53 -121 -110 -18 -103 -19
-101 76 -204 44 -49 82 -91 108 -121 9 -11 19 -12 37 -5 14 5 36 12 48 15 12
2 40 9 62 14 21 5 62 7 90 4 27 -3 56 -5 63 -4 6 0 19 2 27 3 8 1 15 7 15 15
0 7 4 13 8 13 15 0 89 117 120 190 6 14 27 53 46 88 19 34 33 62 30 62 -3 0 1
7 10 15 18 19 35 16 58 -8 21 -24 113 -30 154 -11 59 28 88 51 106 82 10 18
15 32 12 32 -4 0 -2 6 4 13 12 14 7 89 -7 116 -6 10 -8 21 -5 23 6 6 -68 88
-79 88 -5 0 -21 10 -37 22 -29 21 -100 32 -100 15z"/>
<path d="M4049 4520 c-9 -5 -39 -33 -65 -61 -27 -28 -57 -58 -68 -67 -10 -10
-24 -23 -31 -29 -8 -7 -16 -13 -18 -13 -3 0 -36 -30 -73 -68 -38 -37 -87 -84
-109 -104 -22 -20 -53 -50 -68 -67 -16 -17 -33 -31 -38 -31 -10 0 -119 -111
-119 -122 0 -3 -8 -9 -18 -12 -20 -7 -112 -89 -112 -101 0 -8 -24 -30 -60 -55
-32 -22 -70 -58 -71 -67 0 -4 -25 -28 -55 -53 -65 -53 -100 -85 -111 -102 -9
-15 -75 -73 -116 -103 -15 -11 -27 -25 -27 -32 0 -7 -3 -13 -7 -13 -5 0 -30
-21 -58 -46 -104 -95 -197 -181 -268 -249 -40 -38 -87 -81 -105 -95 -17 -14
-31 -31 -32 -37 0 -7 -4 -13 -8 -13 -4 0 -27 -19 -51 -42 l-43 -41 -74 77
c-41 42 -74 82 -75 89 -4 48 -3 87 4 87 4 0 7 6 7 13 0 25 138 177 161 177 21
0 79 68 85 100 9 40 -42 116 -82 123 -10 1 -23 5 -29 8 -24 13 -104 -2 -215
-43 -47 -16 -99 -35 -117 -41 -17 -5 -46 -23 -62 -38 -17 -15 -31 -25 -31 -21
0 4 -16 -18 -36 -48 -20 -30 -39 -57 -43 -60 -12 -8 -105 -183 -108 -203 -2
-11 -19 -46 -38 -78 -19 -33 -35 -64 -35 -68 0 -4 -9 -18 -20 -31 -11 -13 -20
-29 -20 -37 0 -7 -5 -13 -11 -13 -5 0 -19 -19 -29 -42 -11 -25 -52 -75 -99
-120 -84 -81 -140 -121 -200 -143 -20 -7 -49 -19 -66 -25 -16 -7 -37 -14 -45
-15 -25 -4 -159 -43 -170 -50 -5 -3 -18 -8 -27 -10 -10 -1 -47 -11 -83 -20
-36 -9 -89 -21 -119 -26 -30 -4 -62 -16 -72 -25 -11 -10 -19 -14 -19 -10 0 4
-20 -7 -44 -24 -25 -16 -46 -30 -49 -30 -8 0 -103 -96 -134 -135 -28 -36 -122
-211 -128 -239 -1 -6 -5 -18 -8 -26 -37 -94 -37 -280 -1 -406 8 -28 16 -60 18
-70 2 -11 15 -44 29 -74 13 -30 31 -73 38 -95 16 -45 65 -133 104 -185 14 -19
40 -56 56 -82 16 -25 52 -66 79 -89 28 -24 50 -47 50 -52 0 -13 59 -64 95 -84
17 -9 50 -33 74 -54 24 -22 50 -39 57 -39 8 0 14 -3 14 -7 0 -5 24 -19 53 -32
28 -13 63 -29 77 -36 14 -7 28 -13 33 -14 4 0 28 -9 53 -20 42 -19 102 -38
146 -46 10 -2 21 -6 26 -8 7 -5 36 -10 127 -23 65 -9 137 -11 150 -5 5 3 27 7
48 8 55 5 70 8 84 16 7 5 21 10 31 12 32 6 106 44 136 70 16 14 33 25 37 25
14 0 97 88 104 111 4 12 16 32 26 43 11 11 19 25 19 32 0 7 4 14 9 16 6 1 12
14 15 28 6 31 54 151 67 166 5 7 9 16 7 20 -2 9 20 81 30 99 3 5 7 16 8 25 0
8 8 33 17 55 8 22 25 72 37 110 12 39 24 77 27 85 4 8 6 18 5 22 -1 4 5 23 14
43 17 42 58 85 106 111 18 11 40 24 48 31 8 6 20 12 25 13 6 2 20 6 33 11 13
5 35 11 50 14 15 3 41 8 57 11 17 4 36 7 43 7 6 0 12 4 12 9 0 4 7 8 17 8 22
0 178 163 211 220 14 25 36 60 49 78 13 17 21 32 17 32 -4 0 1 9 11 20 10 11
15 20 11 20 -5 0 1 15 11 33 23 39 29 125 11 150 -23 32 -70 24 -124 -19 -99
-80 -157 -105 -229 -103 -65 3 -105 18 -149 58 -41 37 -53 73 -62 177 -7 74 1
92 69 154 27 25 64 60 81 78 17 19 50 53 74 75 24 23 53 52 65 65 25 26 125
125 147 146 8 7 41 40 73 72 32 33 68 68 80 80 12 11 43 44 69 72 26 29 52 52
57 52 5 0 25 20 45 44 38 47 79 88 121 121 13 11 25 23 25 27 0 4 23 28 51 55
72 68 88 84 142 142 26 28 51 51 56 51 5 0 22 16 37 36 35 44 92 101 133 133
17 13 31 27 31 31 0 10 78 88 118 119 18 13 32 28 32 33 0 10 88 98 98 98 4 0
16 12 27 26 11 13 42 46 69 72 126 122 137 140 98 161 -15 8 -51 -23 -224
-192 -247 -242 -538 -524 -538 -522 0 1 -69 -66 -154 -149 -285 -280 -466
-454 -466 -450 0 2 -24 -21 -52 -53 -29 -31 -62 -63 -72 -72 -47 -40 -136
-132 -136 -141 0 -5 -7 -10 -15 -10 -8 0 -15 -4 -15 -10 0 -5 -4 -10 -10 -10
-5 0 -31 -23 -57 -52 -26 -29 -59 -61 -72 -73 -13 -11 -50 -47 -83 -80 -32
-33 -64 -64 -70 -70 -82 -75 -178 -177 -178 -190 0 -9 4 -14 8 -11 4 2 18 -11
31 -30 13 -19 27 -34 31 -34 11 0 52 41 77 76 34 47 57 40 69 -23 2 -12 13
-43 25 -70 29 -68 27 -99 -9 -175 -18 -37 -32 -72 -32 -78 0 -7 -29 -73 -65
-147 -36 -74 -65 -141 -65 -147 0 -7 -33 -79 -74 -159 -41 -80 -77 -160 -81
-177 -4 -16 -11 -30 -16 -30 -5 0 -9 -7 -9 -15 0 -8 -4 -15 -10 -15 -5 0 -9
-3 -8 -7 5 -17 -55 -110 -80 -125 -25 -15 -31 -14 -79 3 -31 12 -60 32 -75 51
-13 17 -58 68 -101 112 -122 128 -219 231 -257 275 -19 22 -39 40 -45 40 -5 1
-29 27 -52 59 -24 32 -54 64 -68 72 -13 7 -27 22 -31 32 -3 10 -10 16 -15 13
-5 -4 -9 1 -9 9 0 9 -7 16 -16 16 -8 0 -13 4 -9 9 3 5 1 12 -4 16 -16 9 -8 46
13 57 10 6 51 42 91 82 99 98 111 106 124 93 6 -6 11 -8 11 -3 0 4 17 -12 38
-36 69 -80 107 -121 126 -137 10 -9 22 -20 27 -26 70 -83 105 -122 117 -129
10 -6 46 24 138 119 121 124 123 127 108 150 -9 14 -24 27 -35 30 -10 4 -19
11 -19 16 0 6 -35 45 -77 87 -43 43 -87 90 -98 105 -11 15 -27 29 -35 32 -21
7 -38 48 -29 71 4 10 8 16 8 12 1 -8 53 42 94 91 15 18 27 29 27 25 0 -5 19
11 43 34 30 29 49 41 60 36 9 -3 17 -9 17 -13 0 -4 13 -21 29 -39 38 -41 48
-37 136 55 39 40 75 73 79 73 11 0 46 40 46 52 0 4 4 8 9 8 4 0 31 21 58 48
28 26 66 60 84 77 19 16 33 31 32 32 -2 2 0 4 4 6 3 1 30 25 58 52 29 28 119
113 201 190 82 77 167 158 190 180 23 22 99 94 169 160 71 66 158 149 196 185
37 36 103 99 146 140 74 71 148 141 202 192 44 43 171 163 252 238 44 41 115
109 158 150 43 41 102 97 130 124 28 26 51 52 51 56 0 4 -8 17 -17 29 -13 15
-22 18 -34 11z"/>
<path d="M4120 4431 c0 -6 -18 -27 -41 -48 -106 -100 -139 -134 -139 -142 0
-5 -8 -12 -17 -15 -10 -3 -43 -31 -73 -61 -30 -31 -61 -61 -68 -68 -50 -45
-187 -175 -256 -242 -113 -110 -162 -157 -303 -290 -47 -44 -120 -114 -163
-155 -43 -41 -112 -106 -153 -145 -134 -126 -207 -199 -207 -207 0 -4 -6 -8
-12 -8 -7 0 -31 -18 -53 -41 -22 -22 -58 -57 -79 -77 -22 -20 -75 -71 -117
-112 -163 -158 -235 -226 -254 -241 -11 -10 -29 -28 -40 -40 -11 -13 -43 -43
-70 -67 -83 -72 -84 -72 -79 -99 5 -28 26 -53 44 -53 11 0 112 103 118 121 2
5 7 9 12 9 12 0 130 118 130 129 0 6 8 12 18 16 20 6 122 100 122 112 0 5 10
15 22 23 21 14 83 73 243 229 36 35 65 68 65 73 0 4 6 8 14 8 7 0 30 18 50 40
20 22 36 37 36 34 0 -4 14 12 30 34 17 23 33 42 38 42 13 0 112 95 112 108 0
6 5 12 10 12 6 0 51 39 100 88 49 48 108 105 132 127 24 23 52 50 63 62 25 27
173 169 305 293 55 52 106 101 113 108 6 7 32 32 55 55 24 23 76 74 115 112
40 39 86 82 102 97 17 15 50 47 74 72 24 26 48 46 53 46 14 0 9 26 -9 46 -20
21 -43 29 -43 15z"/>
</g>
</svg>
