<?xml version="1.0" encoding="UTF-8" standalone="no"?>
<!-- Created with Inkscape (http://www.inkscape.org/) -->

<svg
   width="16"
   height="16"
   viewBox="0 0 16 16"
   version="1.1"
   id="SVGRoot"
   sodipodi:docname="calendar.svg"
   xml:space="preserve"
   inkscape:version="1.2.2 (732a01da63, 2022-12-09)"
   xmlns:inkscape="http://www.inkscape.org/namespaces/inkscape"
   xmlns:sodipodi="http://sodipodi.sourceforge.net/DTD/sodipodi-0.dtd"
   xmlns="http://www.w3.org/2000/svg"
   xmlns:svg="http://www.w3.org/2000/svg"><sodipodi:namedview
     id="namedview14"
     pagecolor="#ffffff"
     bordercolor="#999999"
     borderopacity="1"
     inkscape:showpageshadow="0"
     inkscape:pageopacity="0"
     inkscape:pagecheckerboard="0"
     inkscape:deskcolor="#d1d1d1"
     inkscape:document-units="px"
     showgrid="false"
     inkscape:zoom="90.509668"
     inkscape:cx="12.766592"
     inkscape:cy="12.998611"
     inkscape:window-width="1920"
     inkscape:window-height="991"
     inkscape:window-x="-9"
     inkscape:window-y="-9"
     inkscape:window-maximized="1"
     inkscape:current-layer="layer2"
     showguides="true"><inkscape:grid
       type="xygrid"
       id="grid20"
       originx="0"
       originy="0" /><sodipodi:guide
       position="1,15"
       orientation="0,-1"
       id="guide1572"
       inkscape:locked="false" /><sodipodi:guide
       position="15,1"
       orientation="0,-1"
       id="guide1574"
       inkscape:locked="false" /><sodipodi:guide
       position="1,1"
       orientation="1,0"
       id="guide1576"
       inkscape:locked="false" /><sodipodi:guide
       position="15,15"
       orientation="1,0"
       id="guide1578"
       inkscape:locked="false" /><sodipodi:guide
       position="14,15"
       orientation="-1,0"
       id="guide2291"
       inkscape:locked="false"
       inkscape:label=""
       inkscape:color="rgb(0,134,229)" /><sodipodi:guide
       position="8,3"
       orientation="0,1"
       id="guide2443"
       inkscape:locked="false"
       inkscape:label=""
       inkscape:color="rgb(0,134,229)" /><sodipodi:guide
       position="2,15"
       orientation="-1,0"
       id="guide2469"
       inkscape:label=""
       inkscape:locked="false"
       inkscape:color="rgb(0,134,229)" /><sodipodi:guide
       position="8,14"
       orientation="0,1"
       id="guide2471"
       inkscape:label=""
       inkscape:locked="false"
       inkscape:color="rgb(0,134,229)" /><sodipodi:guide
       position="13,15"
       orientation="-1,0"
       id="guide2473"
       inkscape:label=""
       inkscape:locked="false"
       inkscape:color="rgb(0,134,229)" /><sodipodi:guide
       position="3,15"
       orientation="-1,0"
       id="guide2475"
       inkscape:label=""
       inkscape:locked="false"
       inkscape:color="rgb(0,134,229)" /><sodipodi:guide
       position="8,13"
       orientation="0,1"
       id="guide2477"
       inkscape:label=""
       inkscape:locked="false"
       inkscape:color="rgb(0,134,229)" /></sodipodi:namedview><defs
     id="defs9" /><g
     inkscape:groupmode="layer"
     id="layer2"
     inkscape:label="Layer1"
     style="opacity:1"><path
       id="path3476"
       style="display:inline;opacity:1;fill:#000000;fill-opacity:1;stroke:none;stroke-width:1;stroke-linecap:round;stroke-miterlimit:10000;paint-order:stroke fill markers"
       inkscape:label="Header"
       d="M 4.640625 1 C 4.4237165 1 4.25 1.1737165 4.25 1.390625 L 4.25 2 L 4.25 3.609375 C 4.25 3.6364886 4.252614 3.6619663 4.2578125 3.6875 C 4.263011 3.7130337 4.2713699 3.7382819 4.28125 3.7617188 C 4.2911301 3.7851554 4.3023618 3.8073019 4.3164062 3.828125 C 4.323402 3.83851 4.3319051 3.8477886 4.3398438 3.8574219 C 4.3557209 3.8766884 4.3733116 3.8942791 4.3925781 3.9101562 C 4.4022393 3.9181228 4.4114635 3.9265714 4.421875 3.9335938 C 4.4426981 3.9476382 4.4648446 3.9588699 4.4882812 3.96875 C 4.5117181 3.9786301 4.5369663 3.986989 4.5625 3.9921875 C 4.5880337 3.997386 4.6135114 4 4.640625 4 L 5.359375 4 C 5.3864886 4 5.4119663 3.997386 5.4375 3.9921875 C 5.4630337 3.986989 5.4882819 3.9786301 5.5117188 3.96875 C 5.5351554 3.9588699 5.5573019 3.9476382 5.578125 3.9335938 C 5.5885365 3.9265714 5.5977607 3.9181228 5.6074219 3.9101562 C 5.6266884 3.8942791 5.6442791 3.8766884 5.6601562 3.8574219 C 5.6680949 3.8477886 5.676598 3.83851 5.6835938 3.828125 C 5.6976382 3.8073019 5.7088699 3.7851554 5.71875 3.7617188 C 5.7286301 3.7382819 5.736989 3.7130337 5.7421875 3.6875 C 5.747386 3.6619663 5.75 3.6364886 5.75 3.609375 L 5.75 2 L 5.75 1.390625 C 5.75 1.1737165 5.5762835 1 5.359375 1 L 4.640625 1 z M 10.640625 1 C 10.423716 1 10.25 1.1737165 10.25 1.390625 L 10.25 2 L 10.25 3.609375 C 10.25 3.6364886 10.252616 3.6619663 10.257812 3.6875 C 10.263011 3.7130337 10.27137 3.7382819 10.28125 3.7617188 C 10.29113 3.7851554 10.302362 3.8073019 10.316406 3.828125 C 10.323402 3.83851 10.331905 3.8477886 10.339844 3.8574219 C 10.355721 3.8766884 10.373312 3.8942791 10.392578 3.9101562 C 10.402239 3.9181228 10.411463 3.9265714 10.421875 3.9335938 C 10.442698 3.9476382 10.464844 3.9588699 10.488281 3.96875 C 10.511718 3.9786301 10.536966 3.986989 10.5625 3.9921875 C 10.588034 3.997386 10.613511 4 10.640625 4 L 11.359375 4 C 11.386489 4 11.411966 3.997386 11.4375 3.9921875 C 11.463034 3.986989 11.488282 3.9786301 11.511719 3.96875 C 11.535156 3.9588699 11.557302 3.9476382 11.578125 3.9335938 C 11.588537 3.9265714 11.597761 3.9181228 11.607422 3.9101562 C 11.626688 3.8942791 11.644279 3.8766884 11.660156 3.8574219 C 11.668095 3.8477886 11.676598 3.83851 11.683594 3.828125 C 11.697638 3.8073019 11.70887 3.7851554 11.71875 3.7617188 C 11.72863 3.7382819 11.736989 3.7130337 11.742188 3.6875 C 11.747384 3.6619663 11.75 3.6364886 11.75 3.609375 L 11.75 2 L 11.75 1.390625 C 11.75 1.1737165 11.576284 1 11.359375 1 L 10.640625 1 z M 2.4277344 2 C 2.4277344 2 2.0929606 1.9928812 1.7421875 2.1660156 C 1.3914144 2.3391541 1 2.7888573 1 3.4160156 L 1 14 L 1.5 14 L 9.0703125 14 C 8.9304499 13.685987 8.8316448 13.351458 8.7832031 13 L 2 13 L 2 5 L 14 5 L 14 9.0722656 C 14.367488 9.236249 14.705708 9.4569667 15 9.7246094 L 15 3.4160156 C 15 3.4160156 15.0069 3.0814495 14.830078 2.7324219 C 14.653297 2.3833936 14.201073 2 13.572266 2 L 12 2 L 12 3.609375 C 12 3.9604578 11.710459 4.25 11.359375 4.25 L 10.640625 4.25 C 10.289541 4.25 10 3.9604578 10 3.609375 L 10 2 L 6 2 L 6 3.609375 C 6 3.9604579 5.7104579 4.25 5.359375 4.25 L 4.640625 4.25 C 4.2895421 4.25 4 3.9604579 4 3.609375 L 4 2 L 2.4277344 2 z M 7.5117188 6.25 C 7.3671129 6.25 7.25 6.3671129 7.25 6.5117188 L 7.25 7.4882812 C 7.25 7.6328871 7.3671129 7.75 7.5117188 7.75 L 8.4882812 7.75 C 8.6328871 7.75 8.75 7.6328871 8.75 7.4882812 L 8.75 6.5117188 C 8.75 6.3671129 8.6328871 6.25 8.4882812 6.25 L 7.5117188 6.25 z M 9.5117188 6.25 C 9.3671129 6.25 9.25 6.3671129 9.25 6.5117188 L 9.25 7.4882812 C 9.25 7.6328871 9.3671129 7.75 9.5117188 7.75 L 10.488281 7.75 C 10.632887 7.75 10.75 7.6328871 10.75 7.4882812 L 10.75 6.5117188 C 10.75 6.3671129 10.632887 6.25 10.488281 6.25 L 9.5117188 6.25 z M 11.511719 6.25 C 11.367113 6.25 11.25 6.3671129 11.25 6.5117188 L 11.25 7.4882812 C 11.25 7.6328871 11.367113 7.75 11.511719 7.75 L 12.488281 7.75 C 12.632887 7.75 12.75 7.6328871 12.75 7.4882812 L 12.75 6.5117188 C 12.75 6.3671129 12.632887 6.25 12.488281 6.25 L 11.511719 6.25 z M 3.5117188 8.25 C 3.3671129 8.25 3.25 8.3671129 3.25 8.5117188 L 3.25 9.4882812 C 3.25 9.6328871 3.3671129 9.75 3.5117188 9.75 L 4.4882812 9.75 C 4.6328871 9.75 4.75 9.6328871 4.75 9.4882812 L 4.75 8.5117188 C 4.75 8.3671129 4.6328871 8.25 4.4882812 8.25 L 3.5117188 8.25 z M 5.5117188 8.25 C 5.3671129 8.25 5.25 8.3671129 5.25 8.5117188 L 5.25 9.4882812 C 5.25 9.6328871 5.3671129 9.75 5.5117188 9.75 L 6.4882812 9.75 C 6.6328871 9.75 6.75 9.6328871 6.75 9.4882812 L 6.75 8.5117188 C 6.75 8.3671129 6.6328871 8.25 6.4882812 8.25 L 5.5117188 8.25 z M 7.5117188 8.25 C 7.3671129 8.25 7.25 8.3671129 7.25 8.5117188 L 7.25 9.4882812 C 7.25 9.6328871 7.3671129 9.75 7.5117188 9.75 L 8.4882812 9.75 C 8.6328871 9.75 8.75 9.6328871 8.75 9.4882812 L 8.75 8.5117188 C 8.75 8.3671129 8.6328871 8.25 8.4882812 8.25 L 7.5117188 8.25 z M 9.5117188 8.25 C 9.3671129 8.25 9.25 8.3671129 9.25 8.5117188 L 9.25 9.4882812 C 9.25 9.6328871 9.3671129 9.75 9.5117188 9.75 L 9.9511719 9.75 C 10.190958 9.5277393 10.458877 9.3357513 10.75 9.1816406 L 10.75 8.5117188 C 10.75 8.3671129 10.632887 8.25 10.488281 8.25 L 9.5117188 8.25 z M 11.511719 8.25 C 11.367113 8.25 11.25 8.3671129 11.25 8.5117188 L 11.25 8.9648438 C 11.638375 8.82722 12.054469 8.75 12.488281 8.75 C 12.576399 8.75 12.663352 8.7556353 12.75 8.7617188 L 12.75 8.5117188 C 12.75 8.3671129 12.632887 8.25 12.488281 8.25 L 11.511719 8.25 z M 3.5117188 10.25 C 3.3671129 10.25 3.25 10.367113 3.25 10.511719 L 3.25 11.488281 C 3.25 11.632887 3.3671129 11.75 3.5117188 11.75 L 4.4882812 11.75 C 4.6328871 11.75 4.75 11.632887 4.75 11.488281 L 4.75 10.511719 C 4.75 10.367113 4.6328871 10.25 4.4882812 10.25 L 3.5117188 10.25 z M 5.5117188 10.25 C 5.3671129 10.25 5.25 10.367113 5.25 10.511719 L 5.25 11.488281 C 5.25 11.632887 5.3671129 11.75 5.5117188 11.75 L 6.4882812 11.75 C 6.6328871 11.75 6.75 11.632887 6.75 11.488281 L 6.75 10.511719 C 6.75 10.367113 6.6328871 10.25 6.4882812 10.25 L 5.5117188 10.25 z M 7.5117188 10.25 C 7.3671129 10.25 7.25 10.367113 7.25 10.511719 L 7.25 11.488281 C 7.25 11.632887 7.3671129 11.75 7.5117188 11.75 L 8.4882812 11.75 C 8.6328871 11.75 8.75 11.632887 8.75 11.488281 L 8.75 10.511719 C 8.75 10.367113 8.6328871 10.25 8.4882812 10.25 L 7.5117188 10.25 z " /><path
       id="path854"
       style="display:inline;fill:none;stroke:#000000;stroke-linecap:round;stroke-miterlimit:10000;fill-opacity:1"
       d="M 15.229174,12.490894 A 2.7408934,2.7408934 0 0 1 12.488281,15.231787 2.7408934,2.7408934 0 0 1 9.7473873,12.490894 2.7408934,2.7408934 0 0 1 12.488281,9.75 a 2.7408934,2.7408934 0 0 1 2.740893,2.740894 z" /><path
       id="path9007"
       style="opacity:1;stroke:#000000;stroke-width:3.70248;stroke-dasharray:none;stroke-opacity:1;fill:none;stroke-linecap:butt;stroke-linejoin:miter"
       d="M 1,8 H 15 M 8,1 v 14"
       transform="matrix(0.27008919,0,0,0.27008919,10.327286,10.330286)" /></g><g
     inkscape:label="GuideLayer"
     inkscape:groupmode="layer"
     id="layer1"
     sodipodi:insensitive="true"
     style="display:none"><path
       style="display:inline;fill:#aa0000;stroke-width:0.0078125"
       d="m 11.879913,14.971782 c -0.09619,-0.01475 -0.224371,-0.03943 -0.284838,-0.05499 -0.282925,-0.07287 -0.627198,-0.231473 -0.874279,-0.40279 C 10.538997,14.387953 10.189949,14.042861 10.062152,13.862828 9.8562093,13.572706 9.6957508,13.205129 9.6189574,12.847555 9.5680474,12.610508 9.5546604,12.177831 9.5906324,11.932196 9.760601,10.771623 10.650161,9.8544932 11.807037,9.6470959 c 0.178664,-0.032038 0.626178,-0.043065 0.820964,-0.020245 0.774754,0.090777 1.486511,0.5235701 1.928013,1.1723811 0.242295,0.356063 0.380259,0.712599 0.443987,1.147372 0.02925,0.199569 0.02199,0.629324 -0.01381,0.818517 -0.112628,0.595065 -0.368203,1.067174 -0.805568,1.488084 -0.399741,0.384703 -0.906996,0.634245 -1.462663,0.719555 -0.239008,0.0367 -0.593924,0.03627 -0.838051,-9.68e-4 z M 12.7544,14.526453 c 0.460554,-0.09899 0.833336,-0.298212 1.159778,-0.619778 0.350747,-0.345506 0.569582,-0.773232 0.648872,-1.268265 0.03564,-0.222466 0.02199,-0.612479 -0.02888,-0.826404 -0.187601,-0.788693 -0.744083,-1.398406 -1.510135,-1.654589 -0.472394,-0.1579724 -1.039418,-0.153362 -1.505691,0.01218 -0.385245,0.136839 -0.785,0.424686 -1.037093,0.746766 -0.432895,0.553071 -0.5833102,1.274153 -0.408049,1.956155 0.08311,0.323434 0.258829,0.654475 0.48411,0.91206 0.345758,0.395336 0.819783,0.66195 1.343696,0.755754 0.215257,0.03854 0.641597,0.03157 0.853393,-0.01402 z m -0.910923,-1.29037 V 12.753426 H 11.347934 10.85239 v -0.446639 -0.446638 h 0.495544 0.495543 v -0.489862 -0.489863 h 0.451624 0.451624 l 0.0039,0.486259 0.0039,0.48626 0.484613,0.0039 0.48461,0.0039 v 0.446439 0.446446 h -0.488427 -0.488257 v 0.482657 0.482658 h -0.45182 -0.451818 z M 1.0000011,7.534235 C 1.0001894,2.1696478 0.99442381,2.5411126 1.0800754,2.3737674 1.1636561,2.2104648 1.3274688,2.0742245 1.5056517,2.0198202 1.596248,1.9921588 1.640264,1.9908715 2.4952794,1.9908715 H 3.390094 v 0.4963566 c 0,0.3067058 0.00616,0.5255288 0.0161,0.5727062 C 3.449725,3.2662865 3.6106692,3.4697926 3.8012331,3.5594431 4.216592,3.754845 4.7100159,3.5298291 4.825257,3.0924621 4.84326,3.0241521 4.847573,2.9093916 4.847573,2.4993179 V 1.9908712 h 2.6735202 2.6735178 l 0.0052,0.5366869 c 0.0049,0.5114738 0.0067,0.5406935 0.03746,0.6219701 0.192201,0.5089597 0.834967,0.6481655 1.210026,0.262059 0.04747,-0.048871 0.103608,-0.1225944 0.124745,-0.1638284 0.07661,-0.149449 0.08191,-0.1979068 0.08191,-0.7484414 V 1.9908712 h 0.893704 c 0.779428,0 0.903827,0.00296 0.972869,0.023218 0.129339,0.037935 0.218725,0.090467 0.31371,0.1843596 0.09393,0.092849 0.14591,0.1786537 0.188476,0.3110992 0.02388,0.074315 0.0259,0.3058779 0.03242,3.7235174 l 0.0069,3.6442746 -0.04174,-0.027417 c -0.0703,-0.04623 -0.243208,-0.1417985 -0.32306,-0.1785904 l -0.0757,-0.034877 V 7.3048508 4.9732658 H 7.5293365 1.4370721 v 3.529887 3.5298882 h 3.8641428 3.8641425 l -0.0094,0.04651 c -0.00517,0.02558 -0.013562,0.122841 -0.018637,0.216115 l -0.00922,0.169592 H 5.0639563 0.99982827 Z m 1.1210562,4.012546 c -0.066128,-0.03312 -0.085717,-0.05247 -0.1192127,-0.117842 l -0.040079,-0.07823 3.202e-4,-0.562918 c 2.939e-4,-0.517169 0.00252,-0.567604 0.027311,-0.620551 0.031416,-0.06708 0.093527,-0.128576 0.1518578,-0.150356 0.026462,-0.0099 0.2452998,-0.01531 0.6163657,-0.01531 0.5438605,0 0.5784186,0.0015 0.631677,0.02842 0.030987,0.01567 0.070079,0.04568 0.086869,0.06678 0.029971,0.03765 0.030525,0.05031 0.030525,0.6942 v 0.655839 l -0.05815,0.05468 c -0.031982,0.03008 -0.082812,0.06145 -0.1129554,0.06973 -0.033525,0.0092 -0.2646028,0.01512 -0.5951031,0.01512 l -0.5402975,8.1e-5 z m 2.4211336,0.02082 c -0.06855,-0.0216 -0.1506376,-0.106287 -0.1722913,-0.177726 -0.01276,-0.04209 -0.017872,-0.216341 -0.017872,-0.608842 0,-0.598957 0.00151,-0.611485 0.084579,-0.697927 0.079601,-0.08284 0.068545,-0.08155 0.7023177,-0.08155 0.5533038,0 0.5872926,0.0015 0.6407872,0.0285 0.031069,0.01567 0.07016,0.04747 0.086869,0.07067 0.029708,0.04126 0.030378,0.05649 0.030378,0.694128 v 0.651954 l -0.058149,0.05468 c -0.031982,0.03008 -0.082811,0.06145 -0.1129555,0.06973 -0.075754,0.0208 -1.1162944,0.01771 -1.1836646,-0.0036 z m 2.3842921,-0.0019 c -0.069206,-0.02484 -0.1374237,-0.08642 -0.1641181,-0.148089 -0.015931,-0.03682 -0.020068,-0.166604 -0.020068,-0.63091 0,-0.555213 0.00146,-0.58737 0.029016,-0.640771 0.015951,-0.03093 0.053152,-0.07442 0.082652,-0.09667 l 0.053639,-0.04046 0.6035302,-0.004 c 0.5902005,-0.004 0.6046173,-0.0033 0.6527587,0.02601 0.027075,0.0166 0.0659,0.04966 0.08628,0.0736 l 0.037052,0.04352 v 0.634735 c 0,0.719316 0.00446,0.690975 -0.1195213,0.761151 l -0.062662,0.03547 -0.5611297,0.0033 c -0.4520491,0.0028 -0.572074,-5.64e-4 -0.6174283,-0.01678 z M 2.1206086,9.2122375 C 2.0577227,9.1797596 2.0351972,9.1575049 2.0023464,9.0953373 l -0.040582,-0.076786 8.17e-5,-0.5494491 c 4.93e-5,-0.3334988 0.00599,-0.5705079 0.01513,-0.6030301 0.020135,-0.071671 0.07991,-0.1391955 0.1517905,-0.1714725 0.053874,-0.02419 0.1073451,-0.026475 0.6263612,-0.026765 0.545802,-3.042e-4 0.5698558,8.312e-4 0.6302583,0.029735 0.034539,0.016524 0.075963,0.048325 0.092051,0.07066 0.028249,0.039217 0.029252,0.062947 0.029252,0.6925636 v 0.6519549 l -0.05815,0.054682 c -0.031982,0.030079 -0.082812,0.061452 -0.1129554,0.069728 -0.033532,0.00917 -0.2648923,0.015121 -0.5960523,0.015121 l -0.541247,8.17e-5 z m 2.429025,0.018625 C 4.4689978,9.2024665 4.424413,9.1661079 4.3894685,9.1002567 4.360733,9.0461144 4.3591081,9.0171029 4.3548328,8.4815434 c -0.00299,-0.3741779 7.944e-4,-0.579734 0.01132,-0.6152803 0.020547,-0.069392 0.07753,-0.135308 0.147455,-0.1705725 0.052644,-0.026549 0.088901,-0.028183 0.6253511,-0.028183 0.6273331,0 0.6329011,6.93e-4 0.7145076,0.089016 l 0.043489,0.047073 v 0.6545702 0.6545693 l -0.055656,0.052334 c -0.030611,0.028785 -0.082201,0.060196 -0.1146452,0.069804 -0.090175,0.026701 -1.0995559,0.023259 -1.1770251,-0.00402 z m 2.3676656,-0.00151 C 6.8510807,9.2009719 6.804401,9.1570527 6.770029,9.0908047 6.7441049,9.0408321 6.742297,8.9989851 6.742297,8.4488804 V 7.860448 L 6.784368,7.794868 C 6.8123343,7.751277 6.8480821,7.718932 6.8909928,7.698397 6.9536752,7.668401 6.9722063,7.667513 7.530293,7.667743 c 0.5688525,2.35e-4 0.5753401,5.691e-4 0.6326147,0.032636 0.031827,0.017815 0.072819,0.054332 0.091093,0.081137 l 0.033224,0.048737 v 0.6265055 c 0,0.7199577 0.00539,0.6896073 -0.1345882,0.7585593 L 8.0774541,9.2523548 7.5228317,9.2517922 C 7.0604717,9.251325 6.9597392,9.2476522 6.9173,9.2294122 Z m 2.3758772,-0.00942 c -0.035303,-0.017884 -0.084242,-0.05732 -0.1087553,-0.087763 l -0.044568,-0.055348 -0.00411,-0.6034859 c -0.00398,-0.5842976 -0.00315,-0.6053299 0.025791,-0.661417 0.016492,-0.031943 0.057067,-0.075709 0.090466,-0.097567 l 0.06057,-0.039637 0.5840778,-0.00398 c 0.5826441,-0.00397 0.5842381,-0.00389 0.6495471,0.028816 0.03601,0.018036 0.08047,0.055108 0.09881,0.08238 l 0.03334,0.049586 -0.004,0.6374465 -0.004,0.6374471 -0.04372,0.045979 c -0.09383,0.098639 -0.09862,0.099305 -0.7147378,0.099657 -0.5465916,3.151e-4 -0.555394,-1.421e-4 -0.6186668,-0.032111 z m 2.3799846,-0.00264 c -0.05232,-0.024076 -0.0882,-0.053627 -0.116598,-0.096039 l -0.04102,-0.061251 -0.004,-0.5845846 c -0.004,-0.583616 -0.0039,-0.5846908 0.02916,-0.6485842 0.01825,-0.035199 0.05837,-0.083826 0.08918,-0.1080585 l 0.05601,-0.044057 h 0.607146 0.607143 l 0.05353,0.035797 c 0.103124,0.068966 0.0995,0.041635 0.0995,0.7494206 0,0.6284542 -4.05e-4,0.6372581 -0.03134,0.6802077 -0.01717,0.023938 -0.06479,0.058902 -0.105666,0.077716 -0.07407,0.034098 -0.07619,0.034211 -0.620877,0.034211 H 11.748741 Z M 6.8953656,6.8956079 C 6.8328797,6.8634013 6.8013643,6.832153 6.769896,6.7712011 c -0.02574,-0.049853 -0.0276,-0.092829 -0.0276,-0.6380034 0,-0.458362 0.00426,-0.5946058 0.01969,-0.6311362 0.026029,-0.06158 0.1118096,-0.1345223 0.1803133,-0.1533293 0.033931,-0.00932 0.2619619,-0.01503 0.5943211,-0.014883 0.605248,2.65e-4 0.6101956,0.00101 0.7033589,0.1059009 l 0.047244,0.05319 v 0.639536 0.639536 l -0.038271,0.044959 c -0.021049,0.024729 -0.063418,0.057644 -0.094154,0.073144 -0.052705,0.02658 -0.088881,0.028179 -0.6358139,0.028095 -0.4974219,-7.31e-5 -0.5861443,-0.0033 -0.6236202,-0.022612 z m 2.3902665,2.52e-4 c -0.062698,-0.032679 -0.094075,-0.063853 -0.1254697,-0.1246591 -0.02574,-0.049853 -0.027599,-0.092829 -0.027599,-0.638004 0,-0.4583619 0.00426,-0.5946058 0.01969,-0.6311361 0.026663,-0.063082 0.1129098,-0.135177 0.1845089,-0.1542348 0.038892,-0.010349 0.2452165,-0.014218 0.6086891,-0.011416 0.5434956,0.00421 0.5505316,0.00463 0.6084026,0.037434 0.0322,0.018257 0.07319,0.054312 0.09109,0.080133 0.03245,0.046822 0.03255,0.048652 0.03233,0.6727923 -1.6e-4,0.4680492 -0.0047,0.6345705 -0.01823,0.6604564 -0.01,0.019037 -0.0432,0.054696 -0.074,0.079243 l -0.05599,0.044629 -0.599873,0.00377 c -0.523594,0.00328 -0.6054258,8.696e-4 -0.643562,-0.019006 z m 2.3658349,-0.010047 c -0.02945,-0.0178 -0.06644,-0.048675 -0.08221,-0.068633 -0.05874,-0.074374 -0.06288,-0.1257072 -0.0582,-0.7224993 l 0.0044,-0.5714855 0.04372,-0.061169 c 0.02404,-0.033643 0.06997,-0.074715 0.102022,-0.091268 0.05567,-0.028741 0.08312,-0.030284 0.608722,-0.034197 0.358975,-0.00267 0.570607,0.00128 0.608465,0.011366 0.03192,0.0085 0.08429,0.040135 0.116374,0.070305 l 0.05834,0.054853 v 0.6510844 c 0,0.7304625 0.0054,0.6923952 -0.10902,0.7587187 l -0.06115,0.035429 -0.588999,-7.21e-5 c -0.584734,-8.24e-5 -0.589387,-3.187e-4 -0.642548,-0.032428 z M 3.9876613,3.4692384 C 3.8140085,3.4310708 3.6698948,3.3143718 3.5896693,3.1469562 L 3.5431307,3.0498372 3.538882,2.2816999 C 3.5341385,1.4253103 3.5359482,1.4050449 3.6296484,1.2657263 3.7332023,1.111746 3.8589395,1.0321646 4.0392385,1.0064875 c 0.2344604,-0.0333908 0.4447999,0.063221 0.5752864,0.2642358 0.085296,0.1313982 0.086933,0.1496834 0.087123,0.97327 1.908e-4,0.8299838 -1.808e-4,0.8338563 -0.093999,0.9788373 -0.085648,0.1323537 -0.221462,0.2237714 -0.3752898,0.2526098 -0.092502,0.017335 -0.1434645,0.016044 -0.2447029,-0.00619 z m 6.8064287,0 C 10.576502,3.4214134 10.405503,3.2493592 10.358659,3.0311187 10.34778,2.9804757 10.342285,2.7151304 10.342285,2.243006 c 0,-0.4721243 0.0055,-0.7374686 0.01637,-0.7881125 0.02383,-0.1110351 0.07829,-0.2079685 0.163628,-0.2912602 0.09105,-0.088873 0.182491,-0.1350369 0.308267,-0.1556401 0.290446,-0.0475764 0.570662,0.1236268 0.655653,0.4005821 0.03223,0.1050393 0.03223,1.5638215 0,1.6688601 -0.06207,0.202247 -0.247281,0.3644265 -0.454509,0.3979767 -0.104492,0.016911 -0.136305,0.0161 -0.237608,-0.00618 z m -6.1370913,-2.3824505 -0.035334,-0.03962 0.040079,0.034929 c 0.022043,0.01921 0.040079,0.03704 0.040079,0.03962 0,0.011303 -0.011815,0.0021 -0.044826,-0.034928 z"
       id="path197" /></g></svg>
