<?xml version="1.0" encoding="UTF-8" standalone="no"?>
<!-- Created with Inkscape (http://www.inkscape.org/) -->

<svg
   width="16"
   height="16"
   viewBox="0 0 16 16"
   version="1.1"
   id="SVGRoot"
   sodipodi:docname="crowdIcon.svg"
   xml:space="preserve"
   inkscape:version="1.2.2 (732a01da63, 2022-12-09)"
   xmlns:inkscape="http://www.inkscape.org/namespaces/inkscape"
   xmlns:sodipodi="http://sodipodi.sourceforge.net/DTD/sodipodi-0.dtd"
   xmlns="http://www.w3.org/2000/svg"
   xmlns:svg="http://www.w3.org/2000/svg"><sodipodi:namedview
     id="namedview14"
     pagecolor="#ffffff"
     bordercolor="#999999"
     borderopacity="1"
     inkscape:showpageshadow="0"
     inkscape:pageopacity="0"
     inkscape:pagecheckerboard="0"
     inkscape:deskcolor="#d1d1d1"
     inkscape:document-units="px"
     showgrid="false"
     inkscape:zoom="64"
     inkscape:cx="6.9296875"
     inkscape:cy="8.1796875"
     inkscape:window-width="1920"
     inkscape:window-height="991"
     inkscape:window-x="-9"
     inkscape:window-y="-9"
     inkscape:window-maximized="1"
     inkscape:current-layer="layer2"
     showguides="true"><inkscape:grid
       type="xygrid"
       id="grid20"
       originx="0"
       originy="0" /><sodipodi:guide
       position="1,15"
       orientation="0,-1"
       id="guide3022"
       inkscape:locked="false" /><sodipodi:guide
       position="15,1"
       orientation="0,-1"
       id="guide3024"
       inkscape:locked="false" /><sodipodi:guide
       position="1,1"
       orientation="1,0"
       id="guide3026"
       inkscape:locked="false" /><sodipodi:guide
       position="15,15"
       orientation="1,0"
       id="guide3028"
       inkscape:locked="false" /><sodipodi:guide
       position="5.274687,3.2695724"
       orientation="1,0"
       id="guide3142"
       inkscape:locked="false" /><sodipodi:guide
       position="10.754396,3.2695724"
       orientation="1,0"
       id="guide3144"
       inkscape:locked="false" /><sodipodi:guide
       position="8.015625,7.7535961"
       orientation="0,-1"
       id="guide3146"
       inkscape:locked="false" /><sodipodi:guide
       position="8,15"
       orientation="-1,0"
       id="guide3148"
       inkscape:locked="false"
       inkscape:label=""
       inkscape:color="rgb(0,134,229)" /><sodipodi:guide
       position="8,3.265625"
       orientation="0,-1"
       id="guide3171"
       inkscape:locked="false" /><sodipodi:guide
       position="8,6.90625"
       orientation="0,-1"
       id="guide3173"
       inkscape:locked="false" /></sodipodi:namedview><defs
     id="defs9"><linearGradient
       id="linearGradient5548"
       inkscape:swatch="solid"><stop
         style="stop-color:#ffffff;stop-opacity:1;"
         offset="0"
         id="stop5546" /></linearGradient><linearGradient
       id="linearGradient3529"
       inkscape:swatch="solid"><stop
         style="stop-color:#ffffff;stop-opacity:1;"
         offset="0"
         id="stop3527" /></linearGradient></defs><g
     inkscape:groupmode="layer"
     id="layer2"
     inkscape:label="Layer 1"><path
       id="path5598"
       style="color:#000000;fill:#000000;stroke:none;stroke-width:1;stroke-linejoin:round;stroke-dasharray:none;stroke-opacity:1;-inkscape-stroke:none;paint-order:stroke fill markers"
       inkscape:label="Crowd"
       d="M 5.2832638,13.206055 H 10.75781 V 9.5654297 c 0,0 0,-0.8473461 -2.751801,-0.8473461 -2.7383555,0 -2.7227452,0.8473461 -2.7227452,0.8473461 z M 10.289,5.8820019 A 2.282991,2.2401791 0 0 1 8.006009,8.122181 2.282991,2.2401791 0 0 1 5.723018,5.8820019 2.282991,2.2401791 0 0 1 8.006009,3.6418228 2.282991,2.2401791 0 0 1 10.289,5.8820019 Z M 3.7346466,2.7939453 A 2.282991,2.2401791 0 0 0 1.4516435,5.0341797 2.282991,2.2401791 0 0 0 3.7346466,7.2744141 2.282991,2.2401791 0 0 0 5.326895,6.6357422 C 5.2827483,6.4825044 5.2502892,6.3238123 5.2371359,6.1611328 5.1407597,5.433976 5.3931827,4.7259753 5.843986,4.1767578 A 2.282991,2.2401791 0 0 0 3.7346466,2.7939453 Z m 8.5134544,0 a 2.282991,2.2401791 0 0 0 -2.093727,1.3554688 c 0.283848,0.3369418 0.490963,0.738902 0.577579,1.1796875 0.106071,0.4456403 0.07402,0.8998368 -0.05853,1.3222656 a 2.282991,2.2401791 0 0 0 1.57468,0.6230469 2.282991,2.2401791 0 0 0 2.283004,-2.2402344 2.282991,2.2401791 0 0 0 -2.283004,-2.2402344 z M 3.6214721,7.8681641 C 2.8933192,7.8652639 2.1674424,7.9441263 1.4906692,8.2158203 1.0896941,8.3412929 0.95531076,8.7331475 1.0126044,9.1083984 V 12.358399 H 4.7844378 V 10.569336 C 4.8267051,10.026078 4.6376009,9.3893186 5.059569,8.9541016 5.3996238,8.6448035 5.8078471,8.4720208 6.2420475,8.3720703 5.8975863,8.0764935 5.3604547,8.0111384 4.9249303,7.9365234 4.496945,7.8999837 4.0583639,7.8699042 3.6214721,7.8681641 Z m 8.5134559,0 c -0.728154,-0.0029 -1.455981,0.075962 -2.132755,0.3476562 -0.1068998,0.033451 -0.1929956,0.086324 -0.2634232,0.1523438 0.6646492,0.1416747 1.4329572,0.4502896 1.5180992,1.1972656 v 2.7929693 h 3.742564 c -0.0036,-1.225544 0.0067,-2.4508964 -0.0059,-3.6757818 C 14.723138,8.1109886 13.994765,8.0321784 13.436431,7.9365234 13.008446,7.8999834 12.571816,7.8699044 12.134925,7.8681644 Z M 6.4859585,9.3486328 C 6.2337234,9.4084438 5.9934729,9.499446 5.783496,9.6474606 v 2.7109384 h 0.7044137 c -0.00295,-1.003252 0.00243,-2.006618 -0.00195,-3.0097662 z m 3.0381498,0 v 3.0097662 h 0.7336837 v -1 C 10.244768,10.784105 10.28402,10.193054 10.238281,9.6298826 10.016513,9.4913943 9.7745591,9.4063814 9.5241083,9.3486328 Z" /></g></svg>
