<?xml version="1.0" encoding="UTF-8" standalone="no"?>
<!-- Created with Inkscape (http://www.inkscape.org/) -->

<svg
   width="16"
   height="16"
   viewBox="0 0 16 16"
   version="1.1"
   id="SVGRoot"
   sodipodi:docname="homeIcon.svg"
   xml:space="preserve"
   inkscape:version="1.2.2 (732a01da63, 2022-12-09)"
   xmlns:inkscape="http://www.inkscape.org/namespaces/inkscape"
   xmlns:sodipodi="http://sodipodi.sourceforge.net/DTD/sodipodi-0.dtd"
   xmlns="http://www.w3.org/2000/svg"
   xmlns:svg="http://www.w3.org/2000/svg"><sodipodi:namedview
     id="namedview16"
     pagecolor="#ffffff"
     bordercolor="#999999"
     borderopacity="1"
     inkscape:showpageshadow="0"
     inkscape:pageopacity="0"
     inkscape:pagecheckerboard="0"
     inkscape:deskcolor="#d1d1d1"
     inkscape:document-units="px"
     showgrid="false"
     inkscape:zoom="32"
     inkscape:cx="6.890625"
     inkscape:cy="5.921875"
     inkscape:window-width="1920"
     inkscape:window-height="991"
     inkscape:window-x="-9"
     inkscape:window-y="-9"
     inkscape:window-maximized="1"
     inkscape:current-layer="layer2"
     showguides="true"><inkscape:grid
       type="xygrid"
       id="grid22"
       originx="0"
       originy="0" /><sodipodi:guide
       position="1,15"
       orientation="0,-1"
       id="guide1570"
       inkscape:locked="false" /><sodipodi:guide
       position="15,1"
       orientation="0,-1"
       id="guide1572"
       inkscape:locked="false" /><sodipodi:guide
       position="1,1"
       orientation="1,0"
       id="guide1574"
       inkscape:locked="false" /><sodipodi:guide
       position="15,15"
       orientation="1,0"
       id="guide1576"
       inkscape:locked="false" /></sodipodi:namedview><defs
     id="defs11" /><g
     inkscape:label="Layer 1"
     inkscape:groupmode="layer"
     id="layer1" /><g
     inkscape:groupmode="layer"
     id="layer2"
     inkscape:label="Layer 2"
     style="display:inline"><path
       style="display:inline;fill:#000000;stroke-width:0.00781248"
       d="m 13.020568,14.979992 c 0.09084,-0.03044 0.250078,-0.134189 0.31337,-0.204158 0.02916,-0.03223 0.07666,-0.105766 0.105618,-0.163424 0.05264,-0.104839 0.05264,-0.104839 0.06153,-1.956805 0.0048,-1.018585 0.0099,-2.520257 0.01083,-3.3370463 0.0019,-1.4850726 0.0019,-1.4850726 0.664519,-1.4850726 0.662518,0 0.662518,0 0.711182,-0.035749 0.105016,-0.077157 0.144155,-0.2373069 0.08414,-0.3442292 C 14.932932,7.3842263 8.4905565,1.1679315 8.4002727,1.1125769 8.1669896,0.96954658 7.8725378,0.96230256 7.6343969,1.0937351 7.5581546,1.135814 6.9925268,1.675117 4.2993254,4.2735904 2.5155335,5.9946393 1.0437293,7.4247056 1.0286494,7.4515155 c -0.0604755,0.1075043 -0.021662,0.2692684 0.083073,0.3462116 0.048665,0.035749 0.048665,0.035749 0.7111838,0.035749 0.6625183,0 0.6625183,0 0.6625183,1.6912388 0,1.0954561 0.00501,1.6912371 0.014226,1.6912371 0.00919,0 0.015597,0.58986 0.018149,1.666774 0.00392,1.666778 0.00392,1.666778 0.05434,1.75763 0.069831,0.12582 0.1905585,0.236982 0.3288514,0.302818 0.1125988,0.0536 0.1125988,0.0536 1.3906439,0.0536 1.2780453,0 1.2780453,0 1.3793187,-0.04776 0.1238586,-0.05842 0.2900791,-0.212759 0.3399446,-0.315646 0.075379,-0.155541 0.072963,-0.09563 0.073148,-1.813587 1.721e-4,-1.603931 1.721e-4,-1.603931 1.9265366,-1.600386 1.9263648,0.0035 1.9263648,0.0035 1.9336201,1.673816 0.00723,1.670272 0.00723,1.670272 0.056676,1.758067 0.06316,0.112188 0.202341,0.238096 0.330248,0.298754 0.09857,0.04673 0.09857,0.04673 1.361359,0.04928 1.11294,0.0022 1.270541,0 1.328092,-0.01924 z"
       id="path255" /></g></svg>
