<?xml version="1.0" encoding="UTF-8" standalone="no"?>
<!-- Created with Inkscape (http://www.inkscape.org/) -->

<svg
   width="16"
   height="16"
   viewBox="0 0 4.2333334 4.2333334"
   version="1.1"
   id="svg5"
   xml:space="preserve"
   inkscape:version="1.2.2 (732a01da63, 2022-12-09)"
   sodipodi:docname="kebabIcon.svg"
   xmlns:inkscape="http://www.inkscape.org/namespaces/inkscape"
   xmlns:sodipodi="http://sodipodi.sourceforge.net/DTD/sodipodi-0.dtd"
   xmlns="http://www.w3.org/2000/svg"
   xmlns:svg="http://www.w3.org/2000/svg"><sodipodi:namedview
     id="namedview7"
     pagecolor="#ffffff"
     bordercolor="#999999"
     borderopacity="1"
     inkscape:showpageshadow="0"
     inkscape:pageopacity="0"
     inkscape:pagecheckerboard="0"
     inkscape:deskcolor="#d1d1d1"
     inkscape:document-units="mm"
     showgrid="true"
     inkscape:zoom="32.413584"
     inkscape:cx="7.0803648"
     inkscape:cy="8.9005893"
     inkscape:window-width="1920"
     inkscape:window-height="991"
     inkscape:window-x="-9"
     inkscape:window-y="-9"
     inkscape:window-maximized="1"
     inkscape:current-layer="layer1"
     showguides="true"><inkscape:grid
       type="xygrid"
       id="grid59"
       originx="0"
       originy="0" /><sodipodi:guide
       position="0.26458334,3.9687501"
       orientation="0,-1"
       id="guide1518"
       inkscape:locked="false" /><sodipodi:guide
       position="3.9687501,0.26458334"
       orientation="0,-1"
       id="guide1520"
       inkscape:locked="false" /><sodipodi:guide
       position="0.26458334,0.26458334"
       orientation="1,0"
       id="guide1522"
       inkscape:locked="false" /><sodipodi:guide
       position="3.9687501,3.9687501"
       orientation="1,0"
       id="guide1524"
       inkscape:locked="false" /></sodipodi:namedview><defs
     id="defs2" /><g
     inkscape:label="Layer 1"
     inkscape:groupmode="layer"
     id="layer1"><path
       style="fill:#000000;stroke-width:0.00206706"
       d="m 2.1773209,0.26683299 c 0.048358,0.009516 0.063454,0.0136157 0.092947,0.0252229 0.097634,0.0384287 0.1759736,0.11182398 0.22194,0.20793402 0.030511,0.0637965 0.03818,0.0998177 0.038043,0.17869431 -9.59e-5,0.0547455 -0.00197,0.0747744 -0.00964,0.10287183 -0.03954,0.144642 -0.1447837,0.25266265 -0.2888737,0.29648755 -0.037225,0.011314 -0.047173,0.01241 -0.1133508,0.012366 -0.060379,-3.62e-5 -0.078627,-0.0017 -0.1088145,-0.00994 C 1.9287357,1.0584291 1.8436125,1.0029337 1.7927552,0.9391264 1.7590485,0.89683886 1.7246422,0.82620178 1.7122535,0.77385924 1.7004088,0.72384516 1.6992464,0.64080706 1.7096884,0.59145733 c 0.014345,-0.067802 0.052826,-0.142684 0.1002624,-0.19508573 0.05634,-0.0622396 0.1517448,-0.11424674 0.2340761,-0.12759931 0.027616,-0.004473 0.1140131,-0.005746 0.1333024,-0.001938 z m 0.00955,1.45659981 c 0.095648,0.017234 0.195993,0.076365 0.2554151,0.1504962 0.028949,0.036116 0.065323,0.1084933 0.078059,0.1553239 0.00811,0.029883 0.00988,0.048606 0.0099,0.1065048 3.63e-5,0.063352 -0.00115,0.074158 -0.012108,0.1100765 C 2.4758054,2.3845126 2.3763793,2.4875788 2.2437684,2.5302551 2.1660302,2.5552714 2.0666739,2.5553614 1.9889777,2.5304841 1.8654616,2.4909351 1.7609638,2.3868353 1.7216599,2.2641877 1.6985755,2.1921565 1.6958646,2.1011172 1.7145977,2.0269861 c 0.011428,-0.045198 0.052673,-0.1245977 0.082315,-0.158433 0.085452,-0.097538 0.1816984,-0.1436484 0.3078748,-0.1474966 0.032417,-9.888e-4 0.069361,8.08e-5 0.082097,0.00238 z m -0.00121,1.4228984 C 2.3490139,3.1759839 2.4762606,3.2927293 2.52069,3.4537013 2.534684,3.5043734 2.53453,3.6091767 2.520399,3.660811 2.48233,3.7999387 2.3837959,3.9044086 2.246359,3.9513638 L 2.195459,3.9687496 2.116113,3.968633 C 2.0415817,3.9685245 2.0344398,3.9677485 1.9982371,3.9558297 1.8699846,3.9135968 1.7780619,3.8295371 1.7306202,3.7111051 1.7102104,3.6601549 1.7027517,3.6189175 1.702672,3.5565727 1.7025823,3.4866855 1.7139907,3.4368906 1.744328,3.3745852 1.7997342,3.260834 1.8905189,3.1875659 2.0186403,3.1532056 c 0.031766,-0.00854 0.1346491,-0.012762 0.1670331,-0.00689 z"
       id="path181" /></g></svg>
