<?xml version="1.0" encoding="UTF-8" standalone="no"?>
<!-- Created with Inkscape (http://www.inkscape.org/) -->

<svg
   width="16"
   height="16"
   viewBox="0 0 16 16"
   version="1.1"
   id="svg5"
   xml:space="preserve"
   inkscape:version="1.2.2 (732a01da63, 2022-12-09)"
   sodipodi:docname="addBandIcon.svg"
   xmlns:inkscape="http://www.inkscape.org/namespaces/inkscape"
   xmlns:sodipodi="http://sodipodi.sourceforge.net/DTD/sodipodi-0.dtd"
   xmlns="http://www.w3.org/2000/svg"
   xmlns:svg="http://www.w3.org/2000/svg"><sodipodi:namedview
     id="namedview7"
     pagecolor="#ffffff"
     bordercolor="#111111"
     borderopacity="1"
     inkscape:showpageshadow="0"
     inkscape:pageopacity="0"
     inkscape:pagecheckerboard="1"
     inkscape:deskcolor="#d1d1d1"
     inkscape:document-units="px"
     showgrid="false"
     inkscape:zoom="35.532116"
     inkscape:cx="9.4843775"
     inkscape:cy="5.7553566"
     inkscape:window-width="1920"
     inkscape:window-height="991"
     inkscape:window-x="-9"
     inkscape:window-y="-9"
     inkscape:window-maximized="1"
     inkscape:current-layer="path125" /><defs
     id="defs2" /><g
     inkscape:label="Layer 1"
     inkscape:groupmode="layer"
     id="layer1"><path
       id="path143"
       style="fill:#000000;stroke-width:0.0078125"
       inkscape:label="crowd"
       d="M 1.6825406 1.1503062 C 1.2520791 1.1445338 0.82077654 1.3614647 0.59069409 1.8042954 C 0.19580038 2.5643316 0.70452668 3.5020754 1.5529363 3.5776834 C 1.9479384 3.6128851 2.3302913 3.4609759 2.5925681 3.1633665 C 2.6312981 3.1194188 2.6309239 3.1189858 2.6196079 3.0574648 C 2.5655731 2.7636966 2.6478799 2.3614499 2.815413 2.0997052 C 2.8535799 2.040075 2.8435327 1.9825088 2.7687927 1.8340221 C 2.5428175 1.3850758 2.1130021 1.1560788 1.6825406 1.1503062 z M 6.3277835 1.1530931 C 5.8424389 1.154486 5.3597664 1.4322644 5.1790602 1.9668637 C 5.1507757 2.0505408 5.1503667 2.0449309 5.1883843 2.1034211 C 5.2676605 2.2253878 5.3251867 2.3718838 5.3599469 2.5260987 A 0.17092325 0.17029201 0 0 1 5.4932808 2.688667 L 5.4932808 3.2460441 C 5.6967052 3.4380194 5.9454232 3.5541988 6.209368 3.5776834 C 7.1723595 3.663366 7.8503765 2.6684812 7.4131032 1.8107981 C 7.1864101 1.3661542 6.7560288 1.1518641 6.3277835 1.1530931 z M 3.9977028 1.6203609 C 3.7544062 1.6185611 3.5038523 1.6930417 3.2760212 1.8637489 C 2.3827313 2.5330645 2.7919886 3.9746316 3.8979355 4.0542408 C 3.9433181 4.0575076 3.9872442 4.0610873 3.995838 4.0616725 C 3.998005 4.0618201 4.000196 4.0615422 4.0023648 4.0616725 L 4.0023648 3.9223283 L 4.0023648 2.688667 A 0.17092325 0.17029201 0 0 1 4.172995 2.518667 L 4.7473566 2.518667 L 5.176263 2.518667 C 5.029684 1.9952907 4.531506 1.6243098 3.9977028 1.6203609 z M 1.6722842 3.9390496 C 1.1763128 3.9390092 0.68056989 3.9447654 0.64104397 3.9557709 C 0.43239276 4.0138677 0.26220822 4.1756422 0.20188111 4.3747327 C 0.18033849 4.4458272 0.17463736 4.9402975 0.18416541 5.849924 C 0.1896677 6.3752195 0.18966235 6.3745 0.47973787 6.3766453 C 0.94734207 6.3801036 1.2878619 6.3851653 1.5501391 6.3822191 A 0.17092325 0.17029201 0 0 1 1.5258965 6.3004705 L 1.5258965 5.72823 L 1.5258965 5.1559895 A 0.17092325 0.17029201 0 0 1 1.6965267 4.9859895 L 2.3370891 4.9859895 C 2.3431776 4.8367579 2.3571447 4.7988205 2.3930334 4.7138037 C 2.5029592 4.4534019 2.7978755 4.2418911 3.0522439 4.2418911 C 3.0867719 4.2418911 3.0854022 4.2370019 3.0345282 4.1731479 C 2.9537315 4.0717368 2.8328535 3.9922097 2.7035243 3.9557709 C 2.6644401 3.9447589 2.1682556 3.9390899 1.6722842 3.9390496 z M 6.3212567 3.9399785 C 5.997385 3.9404842 5.6866731 3.943216 5.4932808 3.9474102 L 5.4932808 4.5261534 C 5.5691435 4.6183329 5.6254219 4.7280525 5.6536545 4.8485032 C 5.6596478 4.8740731 5.6627824 4.9068165 5.6648434 4.9859895 L 6.5599524 4.9859895 L 7.7981865 4.9859895 A 0.17092325 0.17029201 0 0 1 7.8177671 4.9897054 C 7.8174797 4.6827857 7.8143233 4.4481196 7.808443 4.4183939 C 7.7647024 4.1972778 7.5735674 4.004331 7.34597 3.952055 C 7.307093 3.943126 6.8134651 3.93921 6.3212567 3.9399785 z M 4.0023648 4.415607 C 3.5152696 4.415681 3.0280183 4.4210287 2.9804487 4.4313993 C 2.8079931 4.4689958 2.6432246 4.6004246 2.5664608 4.7611808 C 2.5360088 4.8249556 2.5233156 4.8415538 2.5170433 4.9859895 L 2.9347608 4.9859895 L 4.0023648 4.9859895 L 4.0023648 4.415607 z M 2.5142461 6.4704705 C 2.5273878 6.8293031 2.5770961 6.8364691 2.755739 6.8392683 C 2.8922782 6.8414033 3.0271113 6.8455569 3.0550411 6.8494869 C 3.0923796 6.8547348 3.5477173 6.857792 4.0023648 6.8578475 L 4.0023648 6.4704705 L 2.9347608 6.4704705 L 2.5142461 6.4704705 z "
       transform="matrix(2.0947169,0,0,2.1024815,-0.37600877,-2.4184976)" /><g
       id="path125"
       inkscape:label="plus"><path
         id="path899"
         style="color:#000000;display:inline;fill:#000000;stroke:#000000;stroke-width:0.716;stroke-linecap:round;stroke-linejoin:round;stroke-miterlimit:50;stroke-opacity:1;-inkscape-stroke:none;paint-order:markers stroke fill"
         d="M 8.7246094 3.5917969 L 8.7246094 5.828125 L 8.7246094 8.421875 A 0.35803581 0.35803581 0 0 1 8.3652344 8.7792969 L 5.7714844 8.7792969 L 3.5371094 8.7792969 L 3.5371094 9.625 L 3.5371094 10.470703 L 5.7714844 10.470703 L 8.3652344 10.470703 A 0.35803581 0.35803581 0 0 1 8.7246094 10.828125 L 8.7246094 13.421875 L 8.7246094 15.658203 L 9.5683594 15.658203 L 10.414062 15.658203 L 10.414062 13.421875 L 10.414062 10.828125 A 0.35803581 0.35803581 0 0 1 10.771484 10.470703 L 13.365234 10.470703 L 15.601562 10.470703 L 15.601562 9.625 L 15.601562 8.7792969 L 13.365234 8.7792969 L 10.771484 8.7792969 A 0.35803581 0.35803581 0 0 1 10.414062 8.421875 L 10.414062 5.828125 L 10.414062 3.5917969 L 9.5683594 3.5917969 L 8.7246094 3.5917969 z " /></g></g></svg>
