<?xml version="1.0" encoding="UTF-8" standalone="no"?>
<!-- Created with Inkscape (http://www.inkscape.org/) -->

<svg
   width="8.0px"
   height="8.0px"
   viewBox="0 0 8.0 8.0"
   version="1.1"
   id="SVGRoot"
   sodipodi:docname="calendarIcon.svg"
   xml:space="preserve"
   inkscape:version="1.2.2 (732a01da63, 2022-12-09)"
   xmlns:inkscape="http://www.inkscape.org/namespaces/inkscape"
   xmlns:sodipodi="http://sodipodi.sourceforge.net/DTD/sodipodi-0.dtd"
   xmlns="http://www.w3.org/2000/svg"
   xmlns:svg="http://www.w3.org/2000/svg"><sodipodi:namedview
     id="namedview14"
     pagecolor="#ffffff"
     bordercolor="#999999"
     borderopacity="1"
     inkscape:showpageshadow="0"
     inkscape:pageopacity="0"
     inkscape:pagecheckerboard="0"
     inkscape:deskcolor="#d1d1d1"
     inkscape:document-units="px"
     showgrid="true"
     inkscape:zoom="45.83973"
     inkscape:cx="-4.4939182"
     inkscape:cy="2.78143"
     inkscape:window-width="1920"
     inkscape:window-height="991"
     inkscape:window-x="-9"
     inkscape:window-y="-9"
     inkscape:window-maximized="1"
     inkscape:current-layer="layer1"><inkscape:grid
       type="xygrid"
       id="grid20" /></sodipodi:namedview><defs
     id="defs9" /><g
     inkscape:label="Layer 1"
     inkscape:groupmode="layer"
     id="layer1"><path
       style="fill:#000000;stroke-width:0.0078125"
       d="M 5.9570312,7.6560178 C 5.9054687,7.6480585 5.836762,7.6346375 5.8043494,7.6261934 5.6526942,7.586684 5.468154,7.5006783 5.3357119,7.4077831 5.2382619,7.3394314 5.0511629,7.152309 4.9826605,7.0546875 4.8722692,6.8973708 4.7862589,6.698053 4.7450955,6.5041612 4.7178067,6.3756235 4.7106302,6.1410061 4.729913,6.0078125 4.8210207,5.3784983 5.2978493,4.8811899 5.9179687,4.7687298 6.013737,4.7513621 6.2536174,4.7453777 6.358027,4.7577516 c 0.41529,0.049217 0.7968123,0.2839025 1.0334704,0.6357173 0.1298764,0.1930737 0.2038297,0.386404 0.2379889,0.6221561 0.01568,0.1082154 0.011794,0.341247 -0.0074,0.4438364 C 7.5617136,6.7821322 7.4247184,7.0381317 7.1902795,7.266367 6.9760066,7.4749701 6.7041041,7.6102835 6.40625,7.6565427 6.2781355,7.6764399 6.0878908,7.6762177 5.9570313,7.6560177 Z m 0.46875,-0.2414783 C 6.672651,7.3608573 6.8724723,7.2528359 7.0474544,7.0784689 7.2354648,6.8911192 7.352766,6.6591871 7.3952681,6.3907588 7.4143684,6.2701279 7.4070619,6.0586459 7.3797861,5.9426452 7.2792272,5.5149802 6.9809379,5.184367 6.5703125,5.0454535 6.317096,4.959791 6.0131547,4.9622948 5.7632197,5.0521019 5.556717,5.1263028 5.3424376,5.2823852 5.2073079,5.4570312 4.9752648,5.7569314 4.8946381,6.1479341 4.9885831,6.517746 c 0.044553,0.1753806 0.1387391,0.3548851 0.2594962,0.4945593 0.1853359,0.2143695 0.4394271,0.3589394 0.7202587,0.4098045 0.115384,0.020899 0.3439141,0.017117 0.4574432,-0.00757 z M 5.9375,6.7148437 V 6.453125 H 5.671875 5.40625 V 6.2109375 5.96875 H 5.671875 5.9375 V 5.703125 5.4375 h 0.2420836 0.2420836 l 0.00206,0.2636719 0.00206,0.2636718 0.2597657,0.00206 0.2597656,0.00206 V 6.2110428 6.453125 H 6.6835937 6.421875 V 6.7148437 6.9765625 H 6.1796875 5.9375 Z M 0.12509273,3.6230469 C 0.1251936,0.71412816 0.12210393,0.91555289 0.16801515,0.82481094 0.21281748,0.73626075 0.30062487,0.66238531 0.39613595,0.63288495 0.44469795,0.61788567 0.46829146,0.6171875 0.92660422,0.6171875 H 1.40625 v 0.26914672 c 0,0.16630958 0.0033,0.28496518 0.00863,0.31054688 0.023334,0.1118934 0.1096044,0.2222435 0.211752,0.270856 C 1.8492761,1.5736927 2.1137652,1.4516795 2.1755376,1.2145191 2.1851855,1.177478 2.1875,1.1152503 2.1875,0.89288984 V 0.6171875 h 1.4330811 1.433081 l 0.00281,0.29101563 c 0.00268,0.27734387 0.00363,0.29318807 0.020078,0.33725987 0.103025,0.2759807 0.4475657,0.3514643 0.6486075,0.1421001 0.025447,-0.0265 0.055537,-0.066476 0.066867,-0.088835 0.041065,-0.081038 0.043908,-0.107314 0.043908,-0.40583836 V 0.6171875 h 0.4790508 c 0.4177946,0 0.4844767,0.00161 0.5214844,0.01259 0.06933,0.0205701 0.1172437,0.0490546 0.1681569,0.0999678 0.050347,0.0503474 0.078212,0.0968742 0.1010294,0.16869213 0.012803,0.0402966 0.013883,0.16586057 0.017383,2.01905737 l 0.00373,1.9760887 -0.022371,-0.014872 C 7.0666967,4.8536445 6.9740086,4.8018177 6.931205,4.7818677 L 6.890625,4.7629541 V 3.4986645 2.234375 H 3.625 0.359375 V 4.1484375 6.0625 h 2.0712891 2.071289 l -0.00504,0.025224 c -0.00277,0.013873 -0.00727,0.066608 -0.00999,0.1171875 l -0.00494,0.091963 H 2.3034869 0.125 Z M 0.72601027,5.7988281 C 0.69056305,5.7808737 0.68006373,5.7703745 0.66210937,5.7349273 L 0.640625,5.6925107 0.64079658,5.387271 c 1.5763e-4,-0.280432 0.001347,-0.3077795 0.0146399,-0.3364898 0.0168401,-0.036373 0.050133,-0.069721 0.0814003,-0.081534 0.0141845,-0.00536 0.13148765,-0.00831 0.33038942,-0.00831 0.2915245,0 0.3100486,8.429e-4 0.3385966,0.015407 0.01661,0.00847 0.037564,0.024768 0.046564,0.03621 0.016065,0.020424 0.016363,0.027283 0.016363,0.3764276 v 0.3556248 l -0.03117,0.029651 c -0.017143,0.016308 -0.044389,0.033322 -0.060547,0.037809 -0.01797,0.00499 -0.1418345,0.00818 -0.318992,0.0082 l -0.28961474,4.36e-5 z M 2.023806,5.8101178 C 1.9870605,5.7984035 1.94306,5.7524902 1.9314531,5.7137498 1.9246163,5.6909308 1.921875,5.5964409 1.921875,5.3836083 c 0,-0.3247813 8.137e-4,-0.3315743 0.045336,-0.3784464 0.042669,-0.044921 0.036742,-0.044224 0.376462,-0.044224 0.2965864,0 0.3148054,8.194e-4 0.34348,0.015448 0.016654,0.0085 0.037608,0.025738 0.046564,0.038315 C 2.7496425,5.0370662 2.75,5.0453296 2.75,5.3910876 v 0.3535192 l -0.03117,0.029651 c -0.017143,0.016308 -0.044389,0.033322 -0.060547,0.037809 -0.040606,0.011277 -0.5983652,0.00956 -0.6344775,-0.00195 z m 1.2780476,-0.00103 c -0.037097,-0.013493 -0.073663,-0.046879 -0.087972,-0.08032 -0.00854,-0.019969 -0.010757,-0.090341 -0.010757,-0.3421082 0,-0.301061 7.805e-4,-0.3184983 0.015553,-0.3474546 0.00855,-0.016767 0.028491,-0.040358 0.044304,-0.052423 l 0.028752,-0.021937 0.3235091,-0.0022 c 0.316364,-0.00215 0.3240919,-0.00184 0.3498969,0.014105 0.014513,0.00897 0.035325,0.02693 0.046249,0.039912 l 0.019861,0.023604 v 0.3441816 c 0,0.390046 0.00239,0.3746778 -0.064067,0.4127297 l -0.033589,0.019234 -0.3007813,0.00183 c -0.242311,0.00147 -0.3066477,-3.055e-4 -0.3309589,-0.00915 z M 0.72576982,4.5329348 c -0.0337085,-0.01761 -0.0457826,-0.029684 -0.0633921,-0.063392 l -0.0217527,-0.041639 4.375e-5,-0.297936 c 2.656e-5,-0.1808379 0.003215,-0.3093553 0.008113,-0.3269903 0.0107933,-0.038863 0.0428339,-0.075478 0.0813643,-0.09298 0.0288778,-0.013117 0.0575405,-0.014356 0.33574723,-0.014513 0.2925652,-1.649e-4 0.3054587,4.507e-4 0.3378361,0.016124 0.018514,0.00896 0.040718,0.026204 0.049341,0.038315 0.015142,0.021265 0.01568,0.034133 0.01568,0.3755392 v 0.3535192 l -0.03117,0.029651 c -0.017143,0.016308 -0.044389,0.033322 -0.060547,0.037809 -0.017974,0.00499 -0.1419898,0.00818 -0.3195008,0.0082 l -0.29012362,4.36e-5 z m 1.30202568,0.010096 c -0.043223,-0.015397 -0.067122,-0.035111 -0.085853,-0.070817 -0.015403,-0.029363 -0.016274,-0.045093 -0.018566,-0.3354947 -0.0016,-0.2028961 4.258e-4,-0.3143574 0.00607,-0.3336322 0.011013,-0.037627 0.041558,-0.07337 0.07904,-0.092492 0.028219,-0.014396 0.047654,-0.015282 0.3352057,-0.015282 0.3362683,0 0.3392528,3.758e-4 0.3829962,0.048269 L 2.75,3.7691072 v 0.3549373 0.3549373 l -0.029833,0.028379 c -0.016408,0.015608 -0.044062,0.032642 -0.061453,0.037853 -0.048336,0.014482 -0.5893929,0.012609 -0.6309186,-0.00218 z m 1.2691353,-7.88e-4 C 3.2614362,4.5268498 3.2364136,4.503034 3.2179897,4.4671081 3.2040941,4.4400123 3.203125,4.4173177 3.203125,4.1190283 V 3.7999341 l 0.022551,-0.03556 c 0.014991,-0.023637 0.034153,-0.041176 0.057154,-0.052311 0.0336,-0.016265 0.043532,-0.016747 0.3426829,-0.016622 0.3049209,1.274e-4 0.3083985,3.086e-4 0.3390993,0.017697 0.01706,0.00966 0.039033,0.029461 0.048828,0.043996 l 0.017809,0.026427 v 0.3397194 c 0,0.3903933 0.00289,0.3739364 -0.072143,0.4113251 l -0.0403,0.020082 L 3.621513,4.554382 C 3.3736748,4.5541273 3.3196793,4.5521077 3.2969308,4.5422428 Z m 1.2735369,-0.00513 c -0.018923,-0.00967 -0.045156,-0.031084 -0.058296,-0.047592 l -0.02389,-0.030014 -0.0022,-0.3272378 c -0.00213,-0.316832 -0.00169,-0.3282366 0.013826,-0.3586495 0.00884,-0.017321 0.030589,-0.041053 0.048492,-0.052905 l 0.032467,-0.021493 0.3130821,-0.00216 c 0.3123135,-0.00215 0.3131683,-0.00211 0.3481754,0.015625 0.019301,0.00978 0.043135,0.029882 0.052965,0.04467 l 0.017872,0.026888 -0.00218,0.3456518 -0.00218,0.3456518 -0.023437,0.024929 C 5.2348725,4.5539628 5.2323027,4.5543252 4.902046,4.5545159 4.609102,4.5546855 4.6043837,4.554437 4.5704677,4.5371094 Z M 5.846206,4.5356728 C 5.818161,4.5226158 5.798927,4.5065888 5.783706,4.4835968 L 5.761719,4.4503828 5.759559,4.1333946 C 5.757409,3.8169318 5.757429,3.816349 5.775184,3.7817031 c 0.00978,-0.019087 0.03129,-0.045454 0.047802,-0.058594 l 0.030022,-0.02389 h 0.3254467 0.3254467 l 0.028695,0.019411 c 0.055281,0.037396 0.053336,0.022576 0.053336,0.4063695 0,0.3407761 -2.172e-4,0.3455502 -0.016801,0.3688393 -0.00924,0.012977 -0.034729,0.031942 -0.056641,0.042145 -0.039705,0.018488 -0.040832,0.018551 -0.3328086,0.018551 H 5.8867187 Z M 3.2851737,3.2767547 c -0.033494,-0.017464 -0.050387,-0.034408 -0.067255,-0.067459 -0.013797,-0.027033 -0.014794,-0.050336 -0.014794,-0.345954 0,-0.2485443 0.00228,-0.3224218 0.010555,-0.3422302 0.013952,-0.033391 0.059933,-0.072944 0.096653,-0.083142 0.018188,-0.00505 0.1404189,-0.00815 0.3185729,-0.00807 0.3244299,1.437e-4 0.3270819,5.476e-4 0.3770201,0.057424 l 0.025324,0.028842 v 0.346785 0.346785 l -0.020514,0.024379 c -0.011283,0.013409 -0.033994,0.031257 -0.05047,0.039662 -0.028252,0.014413 -0.047643,0.01528 -0.3408141,0.015234 -0.2666324,-3.91e-5 -0.3141901,-0.00179 -0.3342782,-0.01226 z m 1.28125,1.367e-4 C 4.5328159,3.2591719 4.5159968,3.2422676 4.4991687,3.2092958 4.4853715,3.1822624 4.484375,3.1589595 4.484375,2.8633416 c 0,-0.2485443 0.00228,-0.3224218 0.010555,-0.3422302 0.014292,-0.034206 0.060523,-0.073299 0.098902,-0.083633 0.020847,-0.00561 0.1314428,-0.00771 0.3262744,-0.00619 0.2913286,0.00228 0.2951001,0.00251 0.3261214,0.020298 0.017261,0.0099 0.039234,0.02945 0.048828,0.043452 0.017397,0.025389 0.017444,0.026381 0.017329,0.364818 -8.59e-5,0.2537972 -0.00255,0.3440925 -0.00977,0.358129 -0.00531,0.010323 -0.023156,0.029659 -0.039664,0.042969 l -0.030013,0.0242 -0.321549,0.00204 c -0.2806629,0.00178 -0.324527,4.711e-4 -0.3449691,-0.010306 z m 1.2681537,-0.00545 C 5.8187904,3.2617914 5.7989604,3.2450494 5.7905114,3.2342274 5.7590234,3.1938984 5.7568074,3.1660634 5.7593164,2.842456 l 0.0024,-0.3098849 0.023437,-0.033169 c 0.012891,-0.018243 0.0375,-0.040514 0.054687,-0.04949 0.02984,-0.015585 0.044558,-0.016421 0.3262912,-0.018543 0.1924214,-0.00145 0.3058629,6.922e-4 0.3261545,0.00616 0.017112,0.00461 0.045184,0.021763 0.062381,0.038122 l 0.031267,0.029744 v 0.353047 c 0,0.3960894 0.00293,0.3754476 -0.058435,0.4114112 l -0.032781,0.019211 -0.3157198,-3.91e-5 C 5.8655682,3.2889845 5.8630734,3.2888564 5.8345774,3.2714455 Z M 1.7265625,1.4188242 C 1.6334797,1.398128 1.5562307,1.3348486 1.5132276,1.2440684 L 1.4882812,1.1914062 1.4860052,0.77488782 C 1.4834677,0.31051495 1.4844382,0.2995261 1.534661,0.22398137 1.5901692,0.14048628 1.6575674,0.09733373 1.7542128,0.08341056 1.8798901,0.06530492 1.992638,0.11769194 2.0625824,0.22669095 c 0.045721,0.0712495 0.046598,0.0811647 0.0467,0.52775045 1.023e-4,0.4500543 -9.69e-5,0.4521541 -0.050386,0.5307693 -0.04591,0.071768 -0.1187098,0.1213388 -0.2011658,0.1369763 -0.049584,0.0094 -0.076901,0.0087 -0.1311677,-0.00336 z m 3.6484375,0 C 5.2583659,1.3928916 5.1667058,1.2995959 5.1415967,1.1812561 c -0.00583,-0.027461 -0.00878,-0.171343 -0.00878,-0.42734985 0,-0.25600688 0.00296,-0.39988841 0.00878,-0.42734984 0.012775,-0.0602076 0.041965,-0.11276981 0.087709,-0.15793429 0.048809,-0.048191 0.09782,-0.07322273 0.1652391,-0.08439448 0.1556873,-0.02579821 0.3058911,0.06703556 0.3514487,0.21721351 0.017278,0.0569565 0.017278,0.84797385 -1e-7,0.90493045 C 5.7127252,1.316039 5.6134439,1.4039799 5.5023645,1.4221723 5.4463537,1.4313458 5.4293002,1.4308974 5.375,1.4188242 Z m -3.2896538,-1.29187108 -0.01894,-0.0214844 0.021484,0.0189399 c 0.011816,0.010417 0.021484,0.020085 0.021484,0.0214844 0,0.006127 -0.00633,0.00114 -0.024029,-0.01894 z"
       id="path197" /></g></svg>
