<?xml version="1.0" encoding="UTF-8" standalone="no"?>
<!-- Created with Inkscape (http://www.inkscape.org/) -->

<svg
   width="8.0px"
   height="8.0px"
   viewBox="0 0 8.0 8.0"
   version="1.1"
   id="SVGRoot"
   sodipodi:docname="crowdIcon.svg"
   xml:space="preserve"
   inkscape:version="1.2.2 (732a01da63, 2022-12-09)"
   xmlns:inkscape="http://www.inkscape.org/namespaces/inkscape"
   xmlns:sodipodi="http://sodipodi.sourceforge.net/DTD/sodipodi-0.dtd"
   xmlns="http://www.w3.org/2000/svg"
   xmlns:svg="http://www.w3.org/2000/svg"><sodipodi:namedview
     id="namedview14"
     pagecolor="#ffffff"
     bordercolor="#999999"
     borderopacity="1"
     inkscape:showpageshadow="0"
     inkscape:pageopacity="0"
     inkscape:pagecheckerboard="0"
     inkscape:deskcolor="#d1d1d1"
     inkscape:document-units="px"
     showgrid="true"
     inkscape:zoom="45.254834"
     inkscape:cx="1.4473592"
     inkscape:cy="1.5578446"
     inkscape:window-width="1920"
     inkscape:window-height="991"
     inkscape:window-x="-9"
     inkscape:window-y="-9"
     inkscape:window-maximized="1"
     inkscape:current-layer="layer1"
     showguides="true"><inkscape:grid
       type="xygrid"
       id="grid20" /></sodipodi:namedview><defs
     id="defs9" /><g
     inkscape:label="Layer 1"
     inkscape:groupmode="layer"
     id="layer1"><path
       style="fill:#000000;stroke-width:0.0078125"
       d="m 3.0546875,6.8498552 c -0.02793,-0.00393 -0.1624953,-0.00889 -0.2990347,-0.011025 -0.2482534,-0.00389 -0.2482534,-0.00389 -0.2458277,-0.9662809 0.0027,-1.0723062 -0.00155,-0.989205 0.056933,-1.1116847 0.076764,-0.1607564 0.2412549,-0.2916742 0.4137109,-0.3292707 0.095533,-0.020827 1.9637274,-0.020947 2.0446389,-1.312e-4 0.189001,0.048623 0.3325904,0.1657135 0.412387,0.3362823 0.061181,0.1307761 0.058599,0.080963 0.058599,1.1306923 0,0.9335937 0,0.9335937 -0.2460937,0.9384941 -0.1353516,0.0027 -0.2742188,0.00866 -0.3085938,0.013251 -0.078012,0.010423 -1.8123733,0.010122 -1.8867189,-3.272e-4 z M 0.47945516,6.376957 C 0.18937906,6.3748117 0.18937906,6.3748117 0.18387675,5.8495152 0.17434868,4.9398869 0.18039799,4.4460947 0.20194065,4.375 0.26226788,4.1759091 0.43197337,4.0136428 0.640625,3.9555458 c 0.079052,-0.022011 1.9843312,-0.021856 2.0625,1.68e-4 0.1293294,0.036439 0.2506161,0.1160066 0.331413,0.2174179 0.050874,0.063854 0.052206,0.069056 0.017678,0.069056 -0.254369,0 -0.5492852,0.2108098 -0.6592112,0.4712122 -0.064043,0.1517117 -0.060974,0.1047373 -0.060974,0.9330851 0,0.8076918 0.1581259,0.7453426 -1.85257564,0.730472 z M 5.6679687,5.6464848 c 0,-0.6889443 -9.299e-4,-0.7402958 -0.01445,-0.7979784 C 5.579063,4.5308505 5.311345,4.2862652 4.9960937,4.2478877 4.9112889,4.2375638 4.9162607,4.240868 4.9382328,4.2094342 5.0222946,4.0891735 5.16314,3.9908736 5.3028908,3.9549295 c 0.070335,-0.01809 1.9651282,-0.021048 2.0428823,-0.00319 0.2275978,0.052276 0.4189845,0.2451119 0.4627251,0.4662284 0.012417,0.06277 0.012344,1.0074935 -1.32e-4,1.7194272 -0.00463,0.2643885 0.1114817,0.2453884 -1.4997722,0.2454093 -0.640625,7.8e-6 -0.640625,7.8e-6 -0.6406253,-0.7363196 z M 3.8979545,4.054299 C 2.7920054,3.9746896 2.3827463,2.5333815 3.276038,1.8640645 4.1873645,1.1812343 5.4626267,2.0402741 5.180132,3.1466968 5.046379,3.6705555 4.4964204,4.0953688 3.9960938,4.0613025 3.9875,4.0607173 3.9433373,4.0575658 3.8979545,4.054299 Z M 1.5529666,3.5779678 C 0.7045553,3.5023596 0.19566737,2.5646872 0.59056188,1.8046494 1.0507277,0.91898641 2.3165185,0.93596086 2.7684697,1.8338554 2.8432099,1.9823423 2.8534045,2.0403543 2.8152374,2.0999847 2.6477041,2.36173 2.5655469,2.7638463 2.6195817,3.0576151 c 0.011316,0.061521 0.011316,0.061521 -0.027414,0.1054687 -0.2622774,0.29761 -0.6441982,0.4500857 -1.0392011,0.414884 z m 4.6566063,-2.39e-4 C 5.9303455,3.5528843 5.6672059,3.425125 5.4577687,3.2127135 5.3689985,3.1226827 5.371461,3.1278155 5.3825116,3.0558478 5.4322396,2.7319919 5.3569407,2.3629238 5.1881588,2.1032519 5.1501412,2.0447617 5.1505677,2.0509914 5.1788524,1.9673141 5.5190056,0.96100773 6.9292395,0.86217594 7.4128523,1.8107514 7.8501266,2.6684363 7.1725662,3.6634116 6.2095729,3.5777288 Z"
       id="path143" /></g><g
     inkscape:groupmode="layer"
     id="layer2"
     inkscape:label="Layer 2" /></svg>
