<?xml version="1.0" encoding="UTF-8" standalone="no"?>
<!-- Created with Inkscape (http://www.inkscape.org/) -->

<svg
   width="8"
   height="8"
   viewBox="0 0 2.1166667 2.1166667"
   version="1.1"
   id="svg5"
   xml:space="preserve"
   inkscape:version="1.2.2 (732a01da63, 2022-12-09)"
   sodipodi:docname="exitButton.svg"
   xmlns:inkscape="http://www.inkscape.org/namespaces/inkscape"
   xmlns:sodipodi="http://sodipodi.sourceforge.net/DTD/sodipodi-0.dtd"
   xmlns="http://www.w3.org/2000/svg"
   xmlns:svg="http://www.w3.org/2000/svg"><sodipodi:namedview
     id="namedview7"
     pagecolor="#ffffff"
     bordercolor="#999999"
     borderopacity="1"
     inkscape:showpageshadow="0"
     inkscape:pageopacity="0"
     inkscape:pagecheckerboard="0"
     inkscape:deskcolor="#d1d1d1"
     inkscape:document-units="px"
     showgrid="true"
     inkscape:zoom="64.827169"
     inkscape:cx="3.3627876"
     inkscape:cy="3.6635874"
     inkscape:window-width="1920"
     inkscape:window-height="991"
     inkscape:window-x="-9"
     inkscape:window-y="-9"
     inkscape:window-maximized="1"
     inkscape:current-layer="layer1"><inkscape:grid
       type="xygrid"
       id="grid59"
       originx="0"
       originy="0" /></sodipodi:namedview><defs
     id="defs2" /><g
     inkscape:label="Layer 1"
     inkscape:groupmode="layer"
     id="layer1"><path
       style="fill:#000000;stroke-width:0.00206706"
       d="m 0.43408206,1.8804865 c -0.010537,-0.00318 -0.18813385,-0.180126 -0.19540212,-0.1946903 -0.006458,-0.012941 -0.006777,-0.029258 -8.2947e-4,-0.042485 0.003271,-0.00727 0.0668793,-0.072023 0.29191638,-0.2971469 L 0.81750104,1.0583188 0.52975583,0.77048834 C 0.30434818,0.5450139 0.24110699,0.48064275 0.23783947,0.47335615 c -0.005934,-0.0132339 -0.005612,-0.0295569 8.4047e-4,-0.0424856 0.003847,-0.007709 0.0276198,-0.0326404 0.0966349,-0.10134497 0.0991652,-0.0987189 0.0958081,-0.0960054 0.11864405,-0.0959027 0.005589,2.522e-5 0.0142477,0.00191 0.0193972,0.004222 0.007281,0.003269 0.0718407,0.0666943 0.2971395,0.29191632 L 1.0583334,0.81750095 1.3461711,0.52976131 C 1.57147,0.30453928 1.6360299,0.24111421 1.6433107,0.23784499 c 0.00515,-0.002312 0.013808,-0.004197 0.019397,-0.004222 0.022852,-1.0273e-4 0.019393,-0.002904 0.1195834,0.0968543 0.052735,0.0525074 0.093983,0.0952169 0.095987,0.0993892 0.00193,0.004024 0.00392,0.0126969 0.00442,0.0192731 0.00189,0.0250807 0.023163,0.001974 -0.2949055,0.32031895 L 1.2991731,1.0583261 1.5867886,1.3461675 c 0.1581885,0.1583128 0.289227,0.291055 0.2911966,0.2949827 0.00197,0.00393 0.00404,0.012798 0.00459,0.019712 0.00191,0.023787 0.00274,0.022745 -0.1003512,0.1253945 -0.1001171,0.099685 -0.096666,0.09689 -0.1195162,0.096787 -0.00558,-2.5e-5 -0.014256,-0.00191 -0.019397,-0.00422 -0.00729,-0.00327 -0.071659,-0.06651 -0.2971396,-0.2919236 L 1.0583334,1.2991512 0.77049565,1.5869037 c -0.22548026,0.2254134 -0.28985287,0.2886561 -0.2971395,0.2919236 -0.0102286,0.00459 -0.0271852,0.0053 -0.0392741,0.00166 z"
       id="path181" /></g></svg>
