<?xml version="1.0" encoding="UTF-8" standalone="no"?>
<!-- Created with Inkscape (http://www.inkscape.org/) -->

<svg
   width="8.0px"
   height="8.0px"
   viewBox="0 0 8.0 8.0"
   version="1.1"
   id="SVGRoot"
   sodipodi:docname="homeIcon.svg"
   xml:space="preserve"
   inkscape:version="1.2.2 (732a01da63, 2022-12-09)"
   xmlns:inkscape="http://www.inkscape.org/namespaces/inkscape"
   xmlns:sodipodi="http://sodipodi.sourceforge.net/DTD/sodipodi-0.dtd"
   xmlns="http://www.w3.org/2000/svg"
   xmlns:svg="http://www.w3.org/2000/svg"><sodipodi:namedview
     id="namedview16"
     pagecolor="#ffffff"
     bordercolor="#999999"
     borderopacity="1"
     inkscape:showpageshadow="0"
     inkscape:pageopacity="0"
     inkscape:pagecheckerboard="0"
     inkscape:deskcolor="#d1d1d1"
     inkscape:document-units="px"
     showgrid="true"
     inkscape:zoom="90.509668"
     inkscape:cx="1.7843398"
     inkscape:cy="4.0492912"
     inkscape:window-width="1920"
     inkscape:window-height="991"
     inkscape:window-x="-9"
     inkscape:window-y="-9"
     inkscape:window-maximized="1"
     inkscape:current-layer="layer2"><inkscape:grid
       type="xygrid"
       id="grid22" /></sodipodi:namedview><defs
     id="defs11" /><g
     inkscape:label="Layer 1"
     inkscape:groupmode="layer"
     id="layer1" /><g
     inkscape:groupmode="layer"
     id="layer2"
     inkscape:label="Layer 2"
     style="display:inline"><path
       style="display:inline;fill:#000000;stroke-width:0.0078125"
       d="m 6.703125,7.9788992 c 0.048904,-0.01701 0.1346366,-0.075001 0.1687105,-0.114118 0.01569,-0.018013 0.041278,-0.059117 0.056862,-0.091344 0.028334,-0.058594 0.028334,-0.058594 0.033116,-1.09375 0.00263,-0.5693359 0.00527,-1.4086914 0.00586,-1.8652344 C 6.96875,3.984375 6.96875,3.984375 7.3254344,3.984375 c 0.3566845,0 0.3566845,0 0.3828847,-0.019984 0.056533,-0.04312 0.077614,-0.1326414 0.045308,-0.1924054 C 7.7326968,3.7332655 4.2642729,0.25868341 4.2156662,0.22774309 4.090072,0.1477967 3.9315461,0.14374767 3.8033367,0.21721148 3.7622896,0.24073138 3.4577689,0.54217348 2.0078125,1.9945834 1.0474609,2.95656 0.25507609,3.755892 0.24695734,3.770877 c -0.0325584,0.060093 -0.0116629,0.150506 0.0447236,0.1935142 0.0262001,0.019984 0.0262001,0.019984 0.38288461,0.019984 0.35668445,0 0.35668445,0 0.35668445,0.9453125 0,0.6123034 0.0027,0.9453125 0.00766,0.9453125 0.00495,0 0.0084,0.3297014 0.00977,0.9316406 0.00211,0.9316406 0.00211,0.9316406 0.029256,0.9824219 0.037596,0.070324 0.102592,0.1324609 0.1770459,0.1692586 0.060621,0.02996 0.060621,0.02996 0.7486901,0.02996 0.6880695,0 0.6880695,0 0.7425927,-0.026696 0.066682,-0.032649 0.1561718,-0.1189172 0.1830182,-0.176429 0.040582,-0.086938 0.039282,-0.05346 0.039381,-1.0137004 9.27e-5,-0.896513 9.27e-5,-0.896513 1.0372021,-0.8945313 1.0371093,0.00198 1.0371093,0.00198 1.0410156,0.9355755 0.00391,0.9335937 0.00391,0.9335937 0.030515,0.9826661 0.034002,0.062706 0.1089357,0.1330839 0.1777972,0.1669878 0.053065,0.026127 0.053065,0.026127 0.7329232,0.027551 0.599181,0.00125 0.6840297,0 0.7150141,-0.010806 z"
       id="path255" /></g></svg>
