<?xml version="1.0" encoding="UTF-8" standalone="no"?>
<!-- Created with Inkscape (http://www.inkscape.org/) -->

<svg
   width="8"
   height="8"
   viewBox="0 0 2.1166667 2.1166667"
   version="1.1"
   id="svg5"
   xml:space="preserve"
   inkscape:version="1.2.2 (732a01da63, 2022-12-09)"
   sodipodi:docname="menuIcon.svg"
   xmlns:inkscape="http://www.inkscape.org/namespaces/inkscape"
   xmlns:sodipodi="http://sodipodi.sourceforge.net/DTD/sodipodi-0.dtd"
   xmlns="http://www.w3.org/2000/svg"
   xmlns:svg="http://www.w3.org/2000/svg"><sodipodi:namedview
     id="namedview7"
     pagecolor="#ffffff"
     bordercolor="#999999"
     borderopacity="1"
     inkscape:showpageshadow="0"
     inkscape:pageopacity="0"
     inkscape:pagecheckerboard="0"
     inkscape:deskcolor="#d1d1d1"
     inkscape:document-units="mm"
     showgrid="true"
     inkscape:zoom="45.83973"
     inkscape:cx="3.3595311"
     inkscape:cy="3.6758506"
     inkscape:window-width="1920"
     inkscape:window-height="991"
     inkscape:window-x="-9"
     inkscape:window-y="-9"
     inkscape:window-maximized="1"
     inkscape:current-layer="layer1"><inkscape:grid
       type="xygrid"
       id="grid59" /></sodipodi:namedview><defs
     id="defs2" /><g
     inkscape:label="Layer 1"
     inkscape:groupmode="layer"
     id="layer1"><path
       style="fill:#000000;stroke-width:0.00206706"
       d="m 1.100708,0.21420054 c 0.022046,0.004341 0.028929,0.00621 0.042375,0.0115043 0.044512,0.0175272 0.080227,0.0510016 0.1011832,0.094837 0.01391,0.0290968 0.017407,0.0455258 0.017344,0.0815007 -4.37e-5,0.0249694 -9.006e-4,0.034104 -0.0044,0.046919 -0.018023,0.0659703 -0.066004,0.11523728 -0.1316951,0.1352255 -0.016971,0.005164 -0.021506,0.005659 -0.051677,0.005641 -0.027527,-1.653e-5 -0.035846,-7.7603e-4 -0.049609,-0.004532 -0.0368518,-0.0100556 -0.0756602,-0.0353669 -0.0988463,-0.0644687 -0.0153667,-0.0192873 -0.0310529,-0.051504 -0.036701,-0.0753772 -0.005397,-0.0228113 -0.00593,-0.0606835 -0.001171,-0.0831917 0.006539,-0.0309237 0.024084,-0.065077 0.0457098,-0.0889771 0.0256858,-0.028387 0.0691807,-0.0521068 0.1067161,-0.0581972 0.01259,-0.002043 0.051979,-0.002616 0.060773,-8.8437e-4 z m 0.00436,0.66434316 c 0.043606,0.007864 0.089354,0.03483 0.1164447,0.0686399 0.013198,0.0164715 0.029781,0.0494832 0.035587,0.0708421 0.0037,0.013629 0.0045,0.022169 0.00451,0.048576 1.65e-5,0.028894 -5.25e-4,0.033823 -0.00552,0.050205 -0.019302,0.06325 -0.064631,0.1102577 -0.1250888,0.129722 -0.035441,0.01141 -0.080738,0.011451 -0.11616,1.044e-4 C 0.9585302,1.2285951 0.91088933,1.1811161 0.89297049,1.1251775 0.88244669,1.0923245 0.88121069,1.0508025 0.88975049,1.0169919 0.89495649,0.9963776 0.91376439,0.9601638 0.92727829,0.9447321 0.96623589,0.9002457 1.0101156,0.879215 1.0676396,0.8774597 c 0.014779,-4.5099e-4 0.031622,3.679e-5 0.037428,0.001084 z m -5.521e-4,0.6489722 c 0.074471,0.013525 0.1324832,0.066771 0.1527387,0.140189 0.00638,0.023111 0.00631,0.070911 -1.327e-4,0.094461 -0.017356,0.063455 -0.062278,0.1111029 -0.1249359,0.1325187 l -0.023206,0.00793 -0.036174,-5.31e-5 c -0.033982,-5e-5 -0.037238,-4.039e-4 -0.053743,-0.00584 -0.0584707,-0.019262 -0.10037862,-0.057601 -0.12200742,-0.1116168 -0.009305,-0.023238 -0.0127052,-0.042046 -0.0127417,-0.070481 -4.093e-5,-0.031875 0.005155,-0.054586 0.018991,-0.083003 0.0252598,-0.051881 0.066649,-0.085298 0.12505992,-0.1009694 0.014482,-0.00389 0.061387,-0.00582 0.076151,-0.00314 z"
       id="path181" /></g></svg>
