<?xml version="1.0" encoding="UTF-8" standalone="no"?>
<!-- Created with Inkscape (http://www.inkscape.org/) -->

<svg
   width="16"
   height="16"
   viewBox="0 0 16 16"
   version="1.1"
   id="svg5"
   xml:space="preserve"
   inkscape:version="1.2.2 (732a01da63, 2022-12-09)"
   sodipodi:docname="arrowIcon.svg"
   xmlns:inkscape="http://www.inkscape.org/namespaces/inkscape"
   xmlns:sodipodi="http://sodipodi.sourceforge.net/DTD/sodipodi-0.dtd"
   xmlns="http://www.w3.org/2000/svg"
   xmlns:svg="http://www.w3.org/2000/svg"><sodipodi:namedview
     id="namedview7"
     pagecolor="#ffffff"
     bordercolor="#111111"
     borderopacity="1"
     inkscape:showpageshadow="0"
     inkscape:pageopacity="0"
     inkscape:pagecheckerboard="1"
     inkscape:deskcolor="#d1d1d1"
     inkscape:document-units="px"
     showgrid="false"
     inkscape:zoom="50.25"
     inkscape:cx="7.0845771"
     inkscape:cy="8.0099502"
     inkscape:window-width="1920"
     inkscape:window-height="991"
     inkscape:window-x="-9"
     inkscape:window-y="-9"
     inkscape:window-maximized="1"
     inkscape:current-layer="layer1" /><defs
     id="defs2" /><g
     inkscape:label="Layer 1"
     inkscape:groupmode="layer"
     id="layer1"><path
       style="fill:#000000;stroke-width:0.015625"
       d="M 4.203125,11.13623 C 2.7808594,9.4157647 1.6171875,8.0010127 1.6171875,7.9923369 c 0,-0.017772 5.1661098,-6.2085913 5.1822083,-6.2101113 0.014982,-0.00141 1.1743634,0.972618 1.17983,0.9912119 C 7.9817523,2.7820313 7.1515541,3.7839844 6.1343406,5 l -1.8494787,2.2109375 5.0528815,0.00393 5.0528816,0.00393 V 8 8.7812023 l -5.0535425,0.00393 -5.0535425,0.00393 1.8497773,2.2343757 c 1.0173775,1.228906 1.8483075,2.242375 1.8465113,2.252153 -0.00289,0.01571 -1.1547273,0.977236 -1.180543,0.98549 -0.00562,0.0018 -1.173895,-1.404385 -2.5961606,-3.124851 z"
       id="path123" /></g></svg>
