<?xml version="1.0" encoding="UTF-8" standalone="no"?>
<!-- Created with Inkscape (http://www.inkscape.org/) -->

<svg
   width="16"
   height="16"
   viewBox="0 0 16 16"
   version="1.1"
   id="svg5"
   xml:space="preserve"
   inkscape:version="1.2.2 (732a01da63, 2022-12-09)"
   sodipodi:docname="noprofilepicture.svg"
   xmlns:inkscape="http://www.inkscape.org/namespaces/inkscape"
   xmlns:sodipodi="http://sodipodi.sourceforge.net/DTD/sodipodi-0.dtd"
   xmlns="http://www.w3.org/2000/svg"
   xmlns:svg="http://www.w3.org/2000/svg"><sodipodi:namedview
     id="namedview7"
     pagecolor="#ffffff"
     bordercolor="#111111"
     borderopacity="1"
     inkscape:showpageshadow="0"
     inkscape:pageopacity="0"
     inkscape:pagecheckerboard="1"
     inkscape:deskcolor="#d1d1d1"
     inkscape:document-units="px"
     showgrid="false"
     inkscape:zoom="22.627417"
     inkscape:cx="-9.4354561"
     inkscape:cy="6.6512232"
     inkscape:window-width="1920"
     inkscape:window-height="991"
     inkscape:window-x="-9"
     inkscape:window-y="-9"
     inkscape:window-maximized="1"
     inkscape:current-layer="layer1" /><defs
     id="defs2" /><g
     inkscape:label="Layer 1"
     inkscape:groupmode="layer"
     id="layer1"><rect
       style="fill:#b3b3b3;stroke-width:1.07347"
       id="rect233"
       width="16"
       height="18.4375"
       x="0"
       y="-1.0625" /><path
       style="fill:#666666;stroke-width:0.0175284"
       d="m 3.5001135,13.699962 c 0,-3.463375 -0.00783,-3.210874 0.1066057,-3.436538 0.103361,-0.203821 0.5605327,-0.418262 1.5606205,-0.425664 0.1272471,-0.025185 5.5381053,-0.025185 5.6653523,0 0.995509,-1.42e-5 1.456691,0.221425 1.561722,0.427123 0.112284,0.219905 0.105507,-0.0015 0.105507,3.444547 v 3.130259 H 8.000016 3.5001135 Z M 7.7512484,9.4330659 C 7.4969673,9.3960552 7.4215049,9.3816931 7.2794478,9.3432742 6.3600351,9.0946191 5.6040397,8.3584271 5.3062073,7.4217249 5.1061709,6.7925967 5.1017718,6.1834634 5.2927421,5.5572095 5.5195263,4.8135102 6.0539451,4.1657678 6.7355795,3.808419 7.0128052,3.6630825 7.3544483,3.5597667 7.7083575,3.5142427 8.0470708,3.470674 8.5599157,3.5299521 8.9053427,3.6526007 9.6229022,3.907379 10.212056,4.4464068 10.546653,5.1542638 11.171097,6.4753108 10.792278,8.0363281 9.6384506,8.8967369 9.2974428,9.1510259 8.9146303,9.3169305 8.4765345,9.4002929 8.3390608,9.4264494 7.8558284,9.4482838 7.7512484,9.4330659 Z"
       id="path125"
       sodipodi:nodetypes="ssccsscccsccssssssssc" /></g></svg>
